{"glyphs":{"0":{"ha":758,"x_min":83,"x_max":675,"o":"m 83 649 q 105 769 83 711 q 166 873 126 828 q 260 945 206 918 q 379 972 314 972 q 499 945 444 972 q 592 873 553 918 q 653 769 632 828 q 675 649 675 711 l 675 324 q 653 203 675 261 q 592 99 632 144 q 499 27 553 54 q 379 0 444 0 q 260 27 314 0 q 166 99 206 54 q 105 203 126 144 q 83 324 83 261 l 83 649 m 194 324 q 208 249 194 285 q 245 184 221 213 q 303 139 269 156 q 379 122 338 122 q 455 139 421 122 q 513 184 489 156 q 551 249 538 213 q 564 324 564 285 l 564 649 q 550 723 564 686 q 512 788 536 760 q 453 834 488 817 q 379 851 419 851 q 305 834 339 851 q 247 788 271 817 q 208 723 222 760 q 194 649 194 686 l 194 324 z "},"1":{"ha":444,"x_min":83,"x_max":361,"o":"m 83 701 q 222 836 154 768 q 361 972 290 904 l 361 0 l 250 0 l 250 700 q 166 619 208 660 q 83 538 124 579 l 83 701 l 83 701 z "},"2":{"ha":758,"x_min":83,"x_max":675,"o":"m 83 100 q 118 226 83 176 q 205 313 153 276 q 317 381 257 350 q 430 448 378 411 q 517 535 482 485 q 551 661 551 585 q 539 732 551 697 q 503 793 526 767 q 449 835 481 819 q 379 851 418 851 q 310 835 342 851 q 255 792 278 819 q 219 731 232 765 q 207 661 207 697 l 96 661 q 117 777 96 721 q 175 876 138 833 q 265 946 213 919 q 379 972 317 972 q 494 946 442 972 q 583 876 546 919 q 642 777 621 833 q 663 661 663 721 q 631 513 663 574 q 550 411 599 453 q 445 340 501 369 q 340 284 389 311 q 260 226 292 257 q 228 151 228 196 l 228 122 l 675 122 l 675 0 l 83 0 l 83 100 l 83 100 z "},"3":{"ha":788,"x_min":83,"x_max":704,"o":"m 194 274 q 205 217 194 244 q 233 169 215 190 q 277 135 251 147 q 333 122 303 122 l 425 122 q 481 135 456 122 q 525 169 507 147 q 553 217 543 190 q 564 274 564 244 q 544 360 564 329 q 491 406 524 392 q 417 422 458 419 q 333 425 375 425 l 333 547 l 538 851 l 113 851 l 113 974 l 704 974 l 704 853 q 600 697 653 774 q 494 542 547 621 q 627 436 579 499 q 675 274 675 374 q 657 172 675 221 q 606 84 639 122 q 526 23 572 46 q 425 0 481 0 l 333 0 q 232 23 278 0 q 153 84 186 46 q 101 172 119 122 q 83 274 83 221 l 194 274 z "},"4":{"ha":808,"x_min":83,"x_max":725,"o":"m 83 182 l 83 304 l 547 972 l 675 972 l 675 304 l 725 304 l 725 182 l 675 182 l 675 0 l 564 0 l 564 182 l 83 182 m 211 304 l 564 304 l 564 813 l 211 304 z "},"5":{"ha":758,"x_min":83,"x_max":675,"o":"m 83 122 l 425 122 q 481 135 456 122 q 525 169 507 147 q 553 217 543 190 q 564 274 564 244 q 553 330 564 303 q 525 378 543 357 q 481 413 507 400 q 425 425 456 425 l 121 425 l 121 972 l 601 972 l 601 851 l 232 851 l 232 547 l 425 547 q 526 524 481 547 q 606 463 572 501 q 657 376 639 425 q 675 274 675 326 q 657 172 675 221 q 606 84 639 122 q 526 23 572 46 q 425 0 481 0 l 83 0 l 83 122 z "},"6":{"ha":758,"x_min":83,"x_max":675,"o":"m 83 324 q 93 407 83 365 q 122 485 103 449 l 394 972 l 525 972 l 342 646 q 475 631 414 654 q 581 562 536 607 q 650 455 625 517 q 675 324 675 393 q 653 203 675 261 q 592 99 632 144 q 499 27 553 54 q 379 0 444 0 q 260 27 314 0 q 166 99 206 54 q 105 203 126 144 q 83 324 83 261 m 379 526 q 303 509 338 526 q 245 464 269 492 q 208 399 221 436 q 194 324 194 363 q 208 249 194 285 q 245 184 221 213 q 303 139 269 156 q 379 122 338 122 q 455 139 421 122 q 513 184 489 156 q 551 249 538 213 q 564 324 564 285 q 551 399 564 363 q 513 464 538 436 q 455 509 489 492 q 379 526 421 526 z "},"7":{"ha":758,"x_min":83,"x_max":675,"o":"m 83 972 l 675 972 l 675 851 l 317 0 l 194 0 l 553 851 l 83 851 l 83 972 l 83 972 z "},"8":{"ha":758,"x_min":83,"x_max":675,"o":"m 342 0 q 238 24 285 0 q 156 88 190 49 q 103 178 122 128 q 83 283 83 229 q 110 408 83 350 q 186 510 138 465 q 149 549 165 525 q 123 599 133 572 q 107 655 113 626 q 101 708 101 683 q 119 806 101 758 q 168 891 136 854 q 244 950 200 928 q 342 972 289 972 l 417 972 q 514 950 469 972 q 590 891 558 928 q 640 806 622 854 q 657 708 657 758 q 635 601 657 651 q 574 510 614 550 q 650 408 625 460 q 675 283 675 357 q 656 178 675 229 q 603 87 638 126 q 522 24 569 47 q 417 0 474 0 l 342 0 m 194 283 q 205 223 194 251 q 235 172 215 194 q 281 135 254 149 q 342 122 308 122 l 417 122 q 477 135 450 122 q 524 172 504 149 q 553 223 543 194 q 564 283 564 251 q 553 344 564 314 q 524 396 543 374 q 477 432 504 418 q 417 446 450 446 l 342 446 q 281 432 308 446 q 235 396 254 418 q 205 344 215 374 q 194 283 194 314 m 342 851 q 289 839 313 851 q 249 807 265 826 q 222 761 232 788 q 213 708 213 735 q 222 656 213 682 q 249 611 232 631 q 290 579 267 592 q 342 567 314 567 l 417 567 q 469 578 446 567 q 510 610 493 590 q 536 656 526 631 q 546 708 546 681 q 536 761 546 735 q 510 807 526 788 q 469 839 493 826 q 417 851 446 851 l 342 851 z "},"9":{"ha":758,"x_min":83,"x_max":675,"o":"m 83 649 q 105 769 83 711 q 166 873 126 828 q 260 945 206 918 q 379 972 314 972 q 499 945 444 972 q 592 873 553 918 q 653 769 632 828 q 675 649 675 711 q 665 565 675 607 q 636 488 656 524 l 364 0 l 233 0 l 417 326 q 283 342 344 318 q 178 410 222 365 q 108 517 133 456 q 83 649 83 579 m 379 851 q 305 834 339 851 q 247 788 271 817 q 208 723 222 760 q 194 649 194 686 q 208 574 194 610 q 247 509 222 538 q 305 463 271 481 q 379 446 339 446 q 455 463 421 446 q 513 508 489 481 q 551 573 538 536 q 564 649 564 610 q 550 723 564 686 q 512 788 536 760 q 453 834 488 817 q 379 851 419 851 z "},"\u0000":{"ha":0,"x_min":0,"x_max":0,"o":""},"\r":{"ha":0,"x_min":0,"x_max":0,"o":""}," ":{"ha":444,"x_min":0,"x_max":0,"o":""},"\n":{"ha":0,"x_min":0,"x_max":0,"o":""},"A":{"ha":915,"x_min":14,"x_max":901,"o":"m 14 0 l 403 972 l 513 972 l 901 0 l 781 0 q 618 403 696 201 q 457 808 540 606 q 323 464 390 635 q 185 122 256 293 l 607 122 q 631 61 619 92 q 656 0 643 31 l 14 0 z "},"B":{"ha":786,"x_min":83,"x_max":758,"o":"m 428 972 q 526 956 481 972 q 606 910 572 940 q 658 838 639 881 q 678 739 678 794 q 662 654 678 690 q 615 581 646 618 q 678 531 651 561 q 723 464 706 500 q 749 388 740 428 q 758 308 758 347 q 742 197 758 253 q 692 98 725 142 q 613 27 660 54 q 503 0 565 0 l 86 0 l 86 610 l 228 610 l 83 972 l 428 972 m 503 122 q 568 139 542 122 q 611 182 594 156 q 635 242 628 208 q 642 308 642 275 q 632 367 642 336 q 604 426 622 399 q 560 471 586 453 q 503 489 535 489 l 197 489 l 197 122 l 503 122 m 253 851 q 301 731 276 790 q 350 610 325 671 l 428 610 q 526 644 486 610 q 567 739 567 678 q 556 792 567 771 q 526 827 544 814 q 481 846 507 840 q 428 851 456 851 l 253 851 z "},"C":{"ha":968,"x_min":28,"x_max":940,"o":"m 28 486 q 61 672 28 582 q 155 831 94 761 q 299 944 215 901 q 483 986 383 986 l 483 864 q 344 832 407 864 q 235 747 281 800 q 164 626 189 694 q 139 486 139 558 q 164 346 139 414 q 235 225 189 278 q 344 140 281 172 q 483 108 407 108 q 624 140 560 108 q 733 224 688 172 q 804 344 779 276 q 829 486 829 413 l 940 486 q 907 300 940 390 q 813 140 874 210 q 669 28 753 69 q 483 -14 585 -14 q 299 28 383 -14 q 155 141 215 71 q 61 301 94 211 q 28 486 28 390 z "},"D":{"ha":865,"x_min":83,"x_max":824,"o":"m 83 0 l 83 728 q 139 590 111 658 q 194 450 167 521 l 194 122 l 381 122 q 515 153 454 122 q 620 234 576 183 q 688 351 664 285 q 713 486 713 417 q 688 622 713 556 q 620 738 664 688 q 515 820 576 789 q 381 851 454 851 l 253 851 q 379 538 315 693 q 503 225 443 383 l 397 189 q 243 582 324 388 q 83 972 163 776 l 381 972 q 560 931 478 972 q 700 822 642 890 q 791 667 758 754 q 824 486 824 579 q 791 306 824 393 q 700 150 758 218 q 560 41 642 82 q 381 0 478 0 l 83 0 z "},"E":{"ha":742,"x_min":83,"x_max":700,"o":"m 83 972 l 700 972 l 700 851 l 194 851 l 194 608 l 589 608 l 589 486 l 194 486 l 194 122 l 700 122 l 700 0 l 83 0 l 83 972 l 83 972 z "},"F":{"ha":742,"x_min":83,"x_max":700,"o":"m 194 0 l 83 0 l 83 972 l 700 972 l 700 851 l 194 851 l 194 608 l 589 608 l 589 486 l 194 486 l 194 0 l 194 0 z "},"G":{"ha":1013,"x_min":42,"x_max":954,"o":"m 42 486 q 75 672 42 582 q 169 831 108 761 q 313 944 229 901 q 497 986 397 986 l 497 864 q 358 832 421 864 q 249 747 294 800 q 178 626 203 694 q 153 486 153 558 q 178 346 153 414 q 249 225 203 278 q 358 140 294 172 q 497 108 421 108 q 630 138 568 108 q 738 216 692 167 q 812 329 785 265 q 839 463 839 393 l 838 486 l 619 486 l 619 608 l 942 608 q 954 485 954 547 q 921 299 954 389 q 827 139 888 208 q 683 28 767 69 q 497 -14 599 -14 q 313 28 397 -14 q 169 141 229 71 q 75 301 108 211 q 42 486 42 390 z "},"H":{"ha":832,"x_min":83,"x_max":749,"o":"m 83 0 l 83 972 l 194 972 l 194 565 l 638 767 l 638 972 l 749 972 l 749 0 l 638 0 l 638 369 l 194 168 l 194 0 l 83 0 m 194 299 l 638 500 l 638 635 l 194 435 l 194 299 z "},"I":{"ha":278,"x_min":83,"x_max":194,"o":"m 194 0 l 83 0 l 83 972 l 194 972 l 194 0 l 194 0 z "},"J":{"ha":542,"x_min":14,"x_max":458,"o":"m 14 104 q 150 144 89 111 q 255 229 211 178 q 323 347 299 281 q 347 486 347 413 l 347 851 l 192 851 l 192 972 l 458 972 l 458 486 q 426 306 458 393 q 334 150 393 218 q 193 41 275 82 q 14 0 111 0 l 14 104 z "},"K":{"ha":832,"x_min":83,"x_max":749,"o":"m 194 0 l 83 0 l 83 972 l 194 972 l 194 229 l 618 972 l 749 972 l 472 486 l 749 0 l 618 0 l 407 372 l 194 0 l 194 0 z "},"L":{"ha":714,"x_min":83,"x_max":700,"o":"m 194 122 l 700 122 l 700 0 l 83 0 l 83 972 l 194 972 l 194 122 l 194 122 z "},"M":{"ha":1332,"x_min":14,"x_max":1318,"o":"m 14 1 l 403 972 l 513 972 l 667 589 l 819 972 l 931 972 l 1318 0 l 1197 0 l 875 808 l 728 436 l 901 0 l 431 0 l 606 438 l 457 808 l 135 1 l 14 1 m 667 285 l 603 122 l 732 122 l 667 285 z "},"N":{"ha":832,"x_min":83,"x_max":749,"o":"m 83 0 l 83 972 l 206 972 l 639 194 l 639 851 l 383 851 l 383 972 l 749 972 l 749 0 l 626 0 l 194 788 l 194 0 l 83 0 l 83 0 z "},"O":{"ha":1039,"x_min":28,"x_max":1011,"o":"m 28 486 q 66 678 28 588 q 171 838 104 769 q 327 946 238 906 q 519 986 417 986 q 712 946 622 986 q 868 838 801 906 q 973 678 935 769 q 1011 486 1011 588 q 973 294 1011 385 q 868 135 935 203 q 712 26 801 67 q 519 -14 622 -14 q 327 26 417 -14 q 171 135 238 67 q 66 294 104 203 q 28 486 28 385 m 147 486 q 176 341 147 410 q 256 221 206 272 q 374 139 307 169 q 519 108 442 108 q 665 138 597 108 q 783 220 733 168 q 863 340 833 272 q 892 486 892 408 q 863 633 892 564 q 785 753 835 701 q 667 834 735 804 q 519 864 599 864 q 374 834 442 864 q 256 752 306 804 q 176 631 206 700 q 147 486 147 563 m 525 429 q 485 446 501 429 q 468 486 468 463 q 485 527 468 510 q 525 544 501 544 q 565 527 549 544 q 582 486 582 510 q 565 446 582 463 q 525 429 549 429 z "},"P":{"ha":792,"x_min":83,"x_max":750,"o":"m 83 486 l 383 486 l 83 972 l 454 972 q 572 949 518 972 q 666 885 626 925 q 728 790 706 844 q 750 671 750 735 q 728 552 750 608 q 667 454 706 496 q 573 388 628 413 q 454 364 518 364 l 194 364 l 194 0 l 83 0 l 83 486 m 510 494 q 604 561 569 517 q 639 671 639 606 q 625 744 639 711 q 586 801 611 778 q 527 838 561 825 q 454 851 493 851 l 283 851 l 510 494 z "},"Q":{"ha":1000,"x_min":28,"x_max":972,"o":"m 499 -14 q 311 28 397 -14 q 162 141 225 71 q 63 302 99 211 q 28 492 28 393 q 63 683 28 592 q 161 844 99 774 q 310 956 224 914 q 500 997 397 997 q 690 956 603 997 q 839 844 776 914 q 937 682 901 774 q 972 492 972 590 q 930 284 972 383 q 808 110 888 185 q 826 93 818 103 q 842 74 833 83 l 761 -14 l 644 114 l 644 10 q 572 -8 608 -1 q 499 -14 536 -14 m 500 875 q 356 843 422 875 q 243 758 290 811 q 169 636 196 706 q 143 492 143 567 q 169 347 143 417 q 243 225 196 278 q 356 141 290 172 q 500 110 422 110 q 524 110 513 110 q 549 113 536 111 l 549 385 q 639 292 594 339 q 726 196 683 244 q 823 330 789 253 q 857 492 857 407 q 831 636 857 567 q 756 758 804 706 q 643 843 708 811 q 500 875 578 875 m 435 486 q 454 529 435 514 q 500 544 474 544 q 544 528 525 544 q 564 486 564 513 q 544 444 564 461 q 500 428 524 428 q 456 444 476 428 q 435 486 435 460 z "},"R":{"ha":776,"x_min":83,"x_max":749,"o":"m 83 972 l 453 972 q 571 948 517 972 q 665 882 625 924 q 726 784 704 840 q 749 665 749 728 q 692 488 749 561 q 540 378 636 414 q 642 188 592 282 q 749 0 693 93 l 618 0 l 418 364 l 194 364 l 194 0 l 83 0 l 83 486 l 351 486 l 83 972 m 281 851 q 379 669 328 758 q 481 488 431 579 q 594 546 551 497 q 638 665 638 594 q 624 740 638 706 q 585 799 610 774 q 527 838 561 824 q 453 851 493 851 l 281 851 z "},"S":{"ha":700,"x_min":42,"x_max":658,"o":"m 547 274 q 531 356 547 326 q 488 400 515 386 q 425 417 461 414 q 349 423 389 421 q 267 431 308 425 q 188 453 226 436 q 116 505 149 471 q 61 599 83 539 q 42 699 42 649 q 60 801 42 751 q 111 888 78 850 q 190 949 144 926 q 292 972 236 972 l 603 972 l 603 851 l 292 851 q 235 838 261 851 q 192 804 210 825 q 163 756 174 783 q 153 699 153 728 q 176 606 153 638 q 237 562 200 575 q 319 548 274 549 q 408 547 364 547 q 508 524 463 547 q 588 462 554 500 q 640 374 621 424 q 658 274 658 325 q 640 172 658 221 q 589 84 622 122 q 510 23 556 46 q 408 0 464 0 l 69 0 l 69 122 l 408 122 q 465 135 439 122 q 508 169 490 147 q 537 217 526 190 q 547 274 547 244 z "},"T":{"ha":693,"x_min":14,"x_max":679,"o":"m 14 972 l 679 972 l 679 851 l 403 851 l 403 0 l 292 0 l 292 851 l 14 851 l 14 972 l 14 972 z "},"U":{"ha":832,"x_min":83,"x_max":749,"o":"m 194 972 l 194 365 q 210 274 194 318 q 256 197 226 231 q 326 142 285 163 q 417 122 367 122 q 506 143 465 122 q 576 198 547 164 q 622 276 606 232 q 639 365 639 319 l 639 972 l 749 972 l 749 365 q 724 230 749 296 q 656 113 700 164 q 551 31 613 61 q 417 0 490 0 q 282 31 343 0 q 176 113 221 61 q 108 229 132 164 q 83 365 83 294 l 83 972 l 194 972 z "},"V":{"ha":915,"x_min":14,"x_max":901,"o":"m 403 0 l 14 972 l 135 972 l 458 164 l 731 850 l 308 850 l 260 972 l 901 972 l 514 0 l 403 0 l 403 0 z "},"W":{"ha":1332,"x_min":14,"x_max":1318,"o":"m 14 971 l 135 971 l 457 164 l 606 535 l 431 972 l 901 972 l 728 536 l 875 164 l 1197 972 l 1318 972 l 931 0 l 819 0 l 667 383 l 513 0 l 403 0 l 14 971 m 603 850 l 667 688 l 732 850 l 603 850 z "},"X":{"ha":842,"x_min":14,"x_max":828,"o":"m 564 0 l 14 0 l 351 486 l 14 972 l 153 972 l 421 586 l 604 851 l 364 851 l 281 972 l 828 972 l 490 486 l 828 0 l 689 0 l 421 386 l 238 122 l 479 122 l 564 0 l 564 0 z "},"Y":{"ha":842,"x_min":14,"x_max":828,"o":"m 14 972 l 150 972 l 421 550 l 614 851 l 357 851 l 279 972 l 828 972 l 476 425 l 476 0 l 365 0 l 365 425 l 14 972 l 14 972 z "},"Z":{"ha":693,"x_min":14,"x_max":679,"o":"m 14 972 l 679 972 l 679 851 l 160 122 l 679 122 l 679 0 l 14 0 l 14 122 l 533 851 l 14 851 l 14 972 l 14 972 z "}," ":{"ha":444,"x_min":0,"x_max":0,"o":""},"­":{"ha":0,"x_min":0,"x_max":0,"o":""},"":{"ha":1386,"x_min":14,"x_max":1358,"o":"m 401 972 l 513 972 l 853 121 l 1092 121 q 1154 138 1128 121 q 1197 180 1181 154 q 1222 238 1214 206 q 1231 301 1231 269 q 1214 397 1231 360 q 1168 453 1197 433 q 1101 482 1139 474 q 1022 491 1064 490 q 935 490 979 492 q 851 488 892 488 l 803 610 q 868 607 831 610 q 945 604 906 604 q 1023 609 985 604 q 1091 628 1061 614 q 1139 671 1121 643 q 1157 744 1157 699 q 1144 792 1157 772 q 1112 825 1132 813 q 1067 844 1092 838 q 1018 850 1042 850 l 682 850 l 633 972 l 1018 972 q 1112 958 1065 972 q 1194 916 1158 943 q 1251 848 1229 889 q 1274 756 1274 807 q 1256 662 1274 703 q 1206 581 1238 621 q 1272 529 1243 560 q 1319 462 1300 499 q 1349 384 1339 425 q 1358 301 1358 343 q 1341 187 1358 242 q 1290 90 1324 132 q 1206 24 1256 49 q 1092 0 1156 0 l 781 0 l 457 807 l 185 122 l 607 122 l 656 0 l 14 0 l 401 972 z "},"":{"ha":1560,"x_min":14,"x_max":1518,"o":"m 656 0 l 14 0 l 401 972 l 1518 972 l 1518 850 l 561 850 l 658 607 l 1515 607 l 1515 486 l 707 486 l 853 121 l 1518 121 l 1518 0 l 781 0 l 457 807 l 185 122 l 607 122 l 656 0 l 656 0 z "},"":{"ha":1715,"x_min":14,"x_max":1688,"o":"m 14 0 l 139 317 l 403 972 l 514 972 l 853 122 l 1244 122 q 1379 153 1318 122 q 1484 234 1440 183 q 1552 351 1528 285 q 1576 486 1576 417 q 1552 622 1576 556 q 1484 738 1528 688 q 1379 820 1440 789 q 1244 851 1318 851 l 696 851 l 647 972 l 1244 972 q 1424 931 1342 972 q 1564 822 1506 890 q 1655 667 1622 754 q 1688 486 1688 579 q 1655 306 1688 393 q 1564 150 1622 218 q 1424 41 1506 82 q 1244 0 1342 0 l 781 0 l 457 808 l 185 122 l 607 122 l 656 0 l 14 0 z "},"":{"ha":1303,"x_min":14,"x_max":1289,"o":"m 656 0 l 14 0 l 403 972 l 513 972 l 840 151 l 1118 850 l 696 850 l 649 971 l 1289 971 l 901 0 l 781 0 l 457 807 l 185 122 l 607 122 l 656 0 l 656 0 z "},"":{"ha":1721,"x_min":14,"x_max":1707,"o":"m 14 0 l 403 972 l 513 972 l 842 151 l 994 535 l 819 972 l 1290 972 l 1289 969 l 1115 536 l 1263 164 l 1586 972 l 1707 972 l 1318 0 l 1208 0 l 1054 383 l 901 0 l 781 0 l 457 807 l 185 122 l 607 122 l 656 0 l 14 0 m 990 850 l 1056 688 l 1119 850 l 990 850 z "},"":{"ha":1164,"x_min":83,"x_max":1136,"o":"m 428 972 q 526 956 481 972 q 606 910 572 940 q 658 838 639 881 q 678 739 678 794 q 662 654 678 690 q 615 581 646 618 q 678 531 651 561 q 723 464 706 500 q 749 388 740 428 q 758 308 758 347 q 742 197 758 253 q 692 98 725 142 q 613 27 660 54 q 503 0 565 0 l 86 0 l 86 610 l 228 610 l 83 972 l 428 972 m 807 972 q 905 956 860 972 q 983 910 950 940 q 1036 837 1017 881 q 1056 739 1056 793 q 1040 654 1056 690 q 993 581 1025 618 q 1056 531 1029 561 q 1101 464 1083 500 q 1127 388 1118 428 q 1136 308 1136 347 q 1119 197 1136 253 q 1070 98 1103 142 q 990 27 1038 54 q 881 0 943 0 l 724 0 q 777 55 756 24 q 814 122 799 86 q 904 129 865 122 q 969 156 943 136 q 1007 213 994 176 q 1019 308 1019 249 q 1004 396 1019 361 q 962 451 989 431 q 897 481 935 472 q 813 489 858 489 q 779 553 800 524 q 732 610 758 583 q 806 611 768 610 q 875 624 844 613 q 925 663 906 636 q 944 739 944 689 q 926 806 944 783 q 878 840 907 829 q 814 851 849 850 q 747 851 779 851 q 658 972 724 928 l 807 972 m 503 122 q 568 139 542 122 q 611 182 594 156 q 635 242 628 208 q 642 308 642 275 q 632 367 642 336 q 604 426 622 399 q 560 471 586 453 q 503 489 535 489 l 197 489 l 197 122 l 503 122 m 253 851 q 301 731 276 790 q 350 610 325 671 l 428 610 q 526 644 486 610 q 567 739 567 678 q 556 792 567 771 q 526 827 544 814 q 481 846 507 840 q 428 851 456 851 l 253 851 z "},"":{"ha":1246,"x_min":28,"x_max":1204,"o":"m 28 486 q 62 672 28 583 q 156 826 96 760 q 301 933 217 893 q 485 972 385 972 l 499 972 l 499 851 q 358 822 424 851 q 246 743 293 793 q 172 626 199 693 q 144 486 144 560 q 172 345 144 411 q 246 230 199 279 q 358 151 293 181 q 499 122 424 122 l 954 122 q 1010 135 985 122 q 1053 169 1035 147 q 1083 217 1072 190 q 1093 274 1093 244 q 1069 366 1093 335 q 1008 410 1046 397 q 926 424 971 424 q 838 425 881 425 q 736 448 782 425 q 657 509 690 471 q 606 597 624 547 q 588 699 588 646 q 606 801 588 751 q 657 888 624 850 q 736 949 690 926 q 838 972 782 972 l 1149 972 l 1149 851 l 838 851 q 781 838 807 851 q 738 804 756 825 q 709 756 719 783 q 699 699 699 728 q 722 606 699 638 q 783 562 746 575 q 866 548 821 549 q 954 547 911 547 q 1054 524 1008 547 q 1133 463 1100 501 q 1185 374 1167 424 q 1204 274 1204 325 q 1186 172 1204 221 q 1135 84 1168 122 q 1056 23 1101 46 q 954 0 1010 0 l 499 0 q 305 37 392 0 q 156 138 218 74 q 61 292 94 203 q 28 486 28 382 z "},"":{"ha":1271,"x_min":28,"x_max":1243,"o":"m 28 496 q 62 680 28 593 q 158 832 96 767 q 303 935 219 897 q 488 972 388 972 l 947 972 q 1066 949 1011 972 q 1160 885 1121 925 q 1221 790 1199 844 q 1243 671 1243 735 q 1226 578 1243 621 q 1181 499 1210 535 q 1113 436 1151 464 q 1031 390 1074 408 q 1139 197 1086 294 q 1243 0 1192 100 l 1113 0 q 982 247 1046 122 q 844 490 918 372 q 941 494 890 489 q 1035 519 992 500 q 1106 574 1078 538 q 1133 671 1133 610 q 1081 802 1133 753 q 947 851 1028 851 l 508 851 q 367 824 433 851 q 252 748 301 796 q 174 635 203 700 q 144 496 144 571 q 172 355 144 422 q 247 236 199 288 q 359 153 294 185 q 499 122 424 122 l 888 122 q 919 60 903 90 q 954 0 936 31 l 499 0 q 305 39 392 0 q 156 144 218 78 q 61 301 94 211 q 28 496 28 392 z "},"":{"ha":1338,"x_min":83,"x_max":1324,"o":"m 824 972 l 935 972 l 1324 0 l 1201 0 l 879 808 l 607 122 l 1029 122 l 1078 0 l 436 0 l 824 972 m 83 0 l 83 972 l 697 972 l 649 851 l 194 851 l 194 608 l 551 608 l 503 486 l 194 486 l 194 122 l 357 122 l 308 0 l 83 0 z "},"":{"ha":1039,"x_min":83,"x_max":1011,"o":"m 715 972 q 834 949 779 972 q 928 885 889 925 q 989 790 967 844 q 1011 671 1011 735 q 994 578 1011 622 q 949 497 978 533 q 882 431 921 460 q 800 383 843 401 q 906 192 853 288 q 1011 0 958 97 l 881 0 q 746 246 813 124 q 610 490 679 368 q 676 490 643 490 q 742 490 708 489 q 799 510 771 492 q 851 555 828 528 q 888 613 874 582 q 901 671 901 643 q 849 802 901 753 q 715 851 796 851 l 194 851 l 194 608 l 364 608 q 397 547 379 576 q 431 486 414 517 l 194 486 l 194 122 l 632 122 l 700 0 l 83 0 l 83 972 l 715 972 z "},"":{"ha":1193,"x_min":83,"x_max":1179,"o":"m 700 0 l 83 0 l 83 972 l 1179 972 l 1179 851 l 901 851 l 901 0 l 790 0 l 790 851 l 194 851 l 194 608 l 589 608 l 589 486 l 194 486 l 194 122 l 700 122 l 700 0 l 700 0 z "},"":{"ha":1375,"x_min":83,"x_max":1361,"o":"m 83 972 l 1115 972 l 1067 850 l 644 850 l 917 164 l 1240 972 l 1361 972 l 972 0 l 863 0 l 522 851 l 194 851 l 194 608 l 457 608 l 506 486 l 194 486 l 194 122 l 651 122 l 700 0 l 83 0 l 83 972 l 83 972 z "},"":{"ha":1792,"x_min":83,"x_max":1778,"o":"m 700 0 l 83 0 l 83 972 l 593 972 l 917 164 l 1065 535 l 890 972 l 1361 972 l 1188 536 l 1335 165 l 1657 972 l 1778 972 l 1390 0 l 1279 0 l 1126 383 l 972 0 l 863 0 l 522 851 l 194 851 l 194 608 l 457 608 l 506 486 l 194 486 l 194 122 l 651 122 l 700 0 m 1063 851 l 1126 689 l 1192 851 l 1063 851 z "},"":{"ha":1093,"x_min":83,"x_max":1079,"o":"m 83 0 l 83 972 l 1079 972 l 1079 851 l 560 122 l 1079 122 l 1079 0 l 414 0 l 414 122 l 933 851 l 194 851 l 194 608 l 624 608 l 538 486 l 194 486 l 194 122 l 278 122 l 190 0 l 83 0 l 83 0 z "},"":{"ha":1224,"x_min":83,"x_max":1210,"o":"m 964 0 l 322 0 l 711 972 l 822 972 l 1210 0 l 1089 0 l 767 808 l 494 122 l 915 122 l 964 0 m 83 972 l 582 972 l 533 851 l 194 851 l 194 608 l 440 608 l 392 486 l 194 486 l 194 0 l 83 0 l 83 972 z "},"":{"ha":1039,"x_min":83,"x_max":1011,"o":"m 715 972 q 833 948 779 972 q 927 882 888 924 q 989 784 967 840 q 1011 665 1011 728 q 994 573 1011 617 q 949 493 978 529 q 883 429 921 457 q 801 383 844 401 q 906 192 854 288 q 1011 0 958 96 l 881 0 q 747 246 814 124 q 611 490 681 368 q 677 490 643 490 q 743 490 711 489 q 800 508 772 492 q 851 551 828 525 q 888 607 874 576 q 901 665 901 638 q 888 740 901 706 q 849 799 874 774 q 790 838 824 824 q 715 851 756 851 l 194 851 l 194 608 l 408 608 q 442 547 425 576 q 476 486 458 517 l 194 486 l 194 0 l 83 0 l 83 972 l 715 972 z "},"":{"ha":1147,"x_min":83,"x_max":1133,"o":"m 194 0 l 83 0 l 83 972 l 1133 972 l 1133 851 l 856 851 l 856 0 l 744 0 l 744 851 l 194 851 l 194 608 l 589 608 l 589 486 l 194 486 l 194 0 l 194 0 z "},"":{"ha":1093,"x_min":83,"x_max":1079,"o":"m 83 972 l 1079 972 l 1079 851 l 560 122 l 1079 122 l 1079 0 l 414 0 l 414 122 l 933 851 l 194 851 l 194 608 l 624 608 l 538 486 l 194 486 l 194 0 l 83 0 l 83 972 l 83 972 z "},"":{"ha":1785,"x_min":14,"x_max":1757,"o":"m 403 974 l 513 974 l 667 589 l 819 972 l 931 972 l 1269 122 l 1507 122 q 1565 140 1539 122 q 1608 185 1590 158 q 1636 244 1626 213 q 1646 303 1646 275 q 1608 428 1646 389 q 1512 481 1569 468 q 1388 490 1454 493 q 1263 486 1321 486 l 1214 607 q 1278 604 1240 607 q 1355 601 1315 601 q 1433 606 1394 601 q 1503 626 1472 611 q 1553 667 1535 640 q 1572 739 1572 694 q 1559 786 1572 765 q 1526 822 1546 807 q 1481 844 1506 836 q 1433 851 1457 851 l 1096 851 l 1047 972 l 1433 972 q 1527 957 1482 972 q 1607 913 1572 942 q 1663 843 1642 885 q 1683 750 1683 801 q 1665 658 1683 701 q 1617 578 1647 615 q 1678 528 1651 558 q 1722 460 1704 497 q 1749 382 1740 422 q 1757 303 1757 342 q 1739 198 1757 251 q 1688 101 1721 144 q 1609 28 1656 57 q 1507 0 1563 0 l 1197 0 l 875 808 l 728 438 l 900 3 l 901 3 l 901 1 l 431 1 l 606 438 l 457 808 l 135 1 l 14 1 l 403 974 m 732 122 l 667 285 l 603 122 l 732 122 z "},"":{"ha":2018,"x_min":14,"x_max":1935,"o":"m 603 122 l 732 122 l 667 285 l 603 122 m 819 972 l 1935 972 l 1935 850 l 979 850 l 1076 607 l 1933 607 l 1933 486 l 1125 486 l 1269 121 l 1935 121 l 1935 0 l 1197 0 l 875 808 l 728 436 l 900 3 l 901 1 l 901 0 l 431 0 l 606 438 l 457 808 l 135 1 l 14 1 l 403 972 l 513 972 l 667 589 l 819 972 z "},"":{"ha":2132,"x_min":14,"x_max":2104,"o":"m 14 1 l 403 974 l 513 974 l 667 590 l 819 974 l 931 974 l 1269 122 l 1661 122 q 1796 153 1735 122 q 1901 235 1857 183 q 1970 352 1946 286 q 1994 488 1994 418 q 1970 623 1994 557 q 1901 740 1946 689 q 1796 821 1857 790 q 1661 851 1735 851 l 1113 851 l 1064 974 l 1661 974 q 1840 933 1758 974 q 1981 824 1922 892 q 2072 668 2039 756 q 2104 488 2104 581 q 2072 307 2104 394 q 1981 151 2039 219 q 1841 42 1922 83 q 1661 1 1760 1 l 1197 1 l 875 808 l 728 438 l 900 3 l 901 3 l 901 1 l 431 1 l 606 439 l 457 810 l 135 1 l 14 1 m 603 124 l 732 124 l 667 286 l 603 124 z "},"":{"ha":1721,"x_min":14,"x_max":1707,"o":"m 14 1 l 403 974 l 513 974 l 667 589 l 819 972 l 931 972 l 1258 153 l 1536 850 l 1114 850 l 1065 972 l 1707 972 l 1318 0 l 1197 0 l 875 808 l 728 438 l 900 3 l 901 3 l 901 1 l 431 1 l 606 438 l 457 808 l 135 1 l 14 1 m 667 285 l 603 122 l 732 122 l 667 285 z "},"":{"ha":2128,"x_min":14,"x_max":2114,"o":"m 14 1 l 403 974 l 513 974 l 667 589 l 819 972 l 929 972 l 1253 167 l 1401 536 l 1226 972 l 1697 972 l 1522 536 l 1671 165 l 1993 974 l 2114 974 l 1726 1 l 1615 1 l 1461 383 l 1315 17 l 1314 13 l 1308 0 l 1197 0 l 875 808 l 728 438 l 900 3 l 901 3 l 901 1 l 431 1 l 606 438 l 457 808 l 135 1 l 14 1 m 1397 851 l 1463 689 l 1528 851 l 1397 851 m 667 285 l 603 122 l 732 122 l 667 285 z "},"":{"ha":1404,"x_min":83,"x_max":1376,"o":"m 83 0 l 83 972 l 206 972 l 639 194 l 639 851 l 383 851 l 383 972 l 749 972 l 749 122 l 932 122 q 1067 153 1006 122 q 1172 234 1128 183 q 1241 351 1217 285 q 1265 486 1265 417 q 1236 646 1265 578 q 1155 760 1207 714 q 1031 828 1103 806 q 874 851 958 851 l 874 972 l 932 972 q 1113 931 1031 972 q 1253 823 1194 890 q 1344 667 1311 756 q 1376 486 1376 579 q 1344 306 1376 393 q 1252 150 1311 218 q 1111 41 1193 82 q 932 0 1029 0 l 626 0 l 194 788 l 194 0 l 83 0 z "},"":{"ha":1306,"x_min":83,"x_max":1292,"o":"m 194 0 l 83 0 l 83 972 l 206 972 l 639 194 l 639 851 l 383 851 l 383 972 l 1292 972 l 1292 851 l 1014 851 l 1014 0 l 903 0 l 903 851 l 749 851 l 749 0 l 626 0 l 194 788 l 194 0 l 194 0 z "},"":{"ha":1157,"x_min":42,"x_max":1143,"o":"m 547 274 q 520 374 547 344 q 449 413 493 403 q 351 423 406 422 q 242 435 296 424 q 141 481 189 447 q 63 592 93 514 q 42 699 42 643 q 60 801 42 751 q 111 888 78 850 q 190 949 144 926 q 292 972 236 972 l 1143 972 l 1143 851 l 865 851 l 865 0 l 754 0 l 754 851 l 292 851 q 235 838 261 851 q 192 804 210 825 q 163 756 174 783 q 153 699 153 728 q 176 606 153 638 q 238 562 200 575 q 320 548 275 549 q 408 547 365 547 q 508 524 463 547 q 588 463 554 501 q 640 374 621 424 q 658 274 658 325 q 640 172 658 221 q 588 85 621 124 q 508 23 554 46 q 408 0 463 0 l 69 0 l 69 122 l 408 122 q 464 135 439 122 q 508 169 489 149 q 537 217 526 190 q 547 274 547 244 z "},"":{"ha":1250,"x_min":14,"x_max":1222,"o":"m 14 851 l 14 972 l 899 972 q 996 958 950 972 q 1076 917 1042 944 q 1129 847 1110 889 q 1149 750 1149 806 q 1133 660 1149 701 q 1086 581 1117 618 q 1149 528 1124 560 q 1191 460 1175 497 q 1215 383 1207 424 q 1222 303 1222 343 q 1206 197 1222 250 q 1156 99 1189 143 q 1078 28 1124 56 q 974 0 1032 0 l 557 0 l 557 851 l 403 851 l 403 0 l 292 0 l 292 851 l 14 851 m 668 122 l 974 122 q 1033 140 1007 122 q 1077 183 1060 157 q 1103 242 1094 210 q 1113 303 1113 274 q 1103 362 1113 329 q 1074 423 1093 394 q 1030 470 1056 451 q 974 489 1004 489 l 668 489 l 668 122 m 668 851 l 668 610 l 899 610 q 997 644 957 610 q 1038 739 1038 678 q 1025 788 1038 767 q 992 823 1013 808 q 948 844 972 838 q 899 851 924 851 l 668 851 z "},"":{"ha":1333,"x_min":14,"x_max":1306,"o":"m 14 851 l 14 972 l 863 972 q 1042 931 961 972 q 1182 823 1124 890 q 1273 667 1240 756 q 1306 486 1306 579 q 1273 306 1306 393 q 1182 150 1240 218 q 1042 41 1124 82 q 863 0 960 0 l 567 0 l 567 851 l 403 851 l 403 0 l 292 0 l 292 851 l 14 851 m 678 122 l 863 122 q 997 153 936 122 q 1102 234 1058 183 q 1170 351 1146 285 q 1194 486 1194 417 q 1170 622 1194 556 q 1102 738 1146 688 q 997 820 1058 789 q 863 851 936 851 l 678 851 l 678 122 z "},"":{"ha":951,"x_min":14,"x_max":938,"o":"m 14 972 l 938 972 l 938 851 l 661 851 l 661 0 l 550 0 l 550 851 l 403 851 l 403 0 l 292 0 l 292 851 l 14 851 l 14 972 l 14 972 z "},"":{"ha":1154,"x_min":14,"x_max":1140,"o":"m 14 972 l 1140 972 l 1140 851 l 621 122 l 1140 122 l 1140 0 l 475 0 l 475 122 l 994 851 l 403 851 l 403 0 l 292 0 l 292 851 l 14 851 l 14 972 l 14 972 z "},"":{"ha":1326,"x_min":83,"x_max":1299,"o":"m 194 972 l 194 365 q 211 274 194 318 q 257 197 228 231 q 327 142 286 163 q 417 122 368 122 q 507 142 467 122 q 576 197 547 163 q 622 274 606 231 q 638 365 638 318 l 638 972 l 1003 972 q 1119 951 1065 972 q 1213 891 1174 929 q 1276 800 1253 853 q 1299 683 1299 747 q 1283 588 1299 635 q 1240 500 1268 540 q 1174 428 1213 460 q 1090 379 1136 396 q 1197 191 1146 286 q 1299 0 1247 96 l 1167 0 q 1035 243 1099 122 q 901 486 971 364 q 967 485 933 486 q 1032 486 1000 483 q 1090 508 1063 488 q 1140 559 1118 529 q 1174 622 1161 589 q 1188 683 1188 656 q 1174 757 1188 725 q 1135 810 1160 789 q 1076 841 1110 831 q 1003 851 1042 851 l 749 851 l 749 365 q 724 229 749 294 q 656 113 700 164 q 551 31 613 61 q 417 0 490 0 q 281 31 343 0 q 176 113 219 61 q 108 229 132 164 q 83 365 83 294 l 83 972 l 194 972 z "},"":{"ha":1333,"x_min":14,"x_max":1306,"o":"m 135 972 q 299 569 219 771 q 458 165 378 368 q 595 508 525 339 q 731 850 665 676 l 308 850 q 285 911 297 881 q 260 972 272 942 l 982 972 q 1078 957 1033 972 q 1158 913 1124 942 q 1212 842 1192 885 q 1232 746 1232 800 q 1217 656 1232 692 q 1168 578 1201 619 q 1232 528 1206 557 q 1275 463 1258 499 q 1299 388 1292 428 q 1306 307 1306 349 q 1290 197 1306 251 q 1242 98 1274 142 q 1165 27 1211 54 q 1056 0 1118 0 l 644 0 l 693 121 l 1056 121 q 1117 139 1090 121 q 1160 184 1143 157 q 1186 244 1178 211 q 1194 307 1194 276 q 1178 397 1194 363 q 1135 452 1163 432 q 1071 480 1107 472 q 994 489 1035 488 q 913 488 954 490 q 832 486 871 486 l 881 608 q 960 608 918 608 q 1038 619 1003 608 q 1097 658 1074 631 q 1121 739 1121 685 q 1109 789 1121 768 q 1077 823 1097 810 q 1032 843 1057 836 q 982 850 1007 850 l 853 850 q 683 425 768 636 q 514 0 599 214 l 403 0 l 14 972 l 135 972 z "},"":{"ha":1419,"x_min":14,"x_max":1392,"o":"m 14 972 l 135 972 q 299 569 219 771 q 458 165 378 368 q 595 508 525 339 q 731 850 665 676 l 308 850 l 260 972 l 947 972 q 1126 931 1044 972 q 1267 822 1208 890 q 1359 667 1326 754 q 1392 486 1392 579 q 1359 304 1392 392 q 1268 149 1326 217 q 1128 41 1210 82 q 947 0 1046 0 l 644 0 q 668 60 656 31 q 693 121 681 90 l 947 121 q 1082 151 1021 121 q 1188 233 1143 182 q 1256 350 1232 285 q 1281 486 1281 415 q 1256 622 1281 556 q 1188 738 1232 688 q 1082 819 1143 789 q 947 850 1021 850 l 853 850 q 683 425 768 636 q 514 0 599 214 l 403 0 l 14 972 z "},"":{"ha":1750,"x_min":14,"x_max":1722,"o":"m 135 971 l 457 164 l 606 535 l 431 972 l 901 972 l 728 536 l 875 165 l 1197 972 l 1399 972 q 1497 958 1451 972 q 1576 914 1543 943 q 1629 842 1610 885 q 1649 744 1649 800 q 1633 656 1649 696 q 1585 578 1617 615 q 1648 528 1622 558 q 1690 460 1674 497 q 1715 383 1707 424 q 1722 303 1722 342 q 1704 198 1722 251 q 1653 101 1686 144 q 1574 28 1621 57 q 1472 0 1528 0 l 1061 0 l 1110 122 l 1472 122 q 1530 140 1504 122 q 1574 185 1556 158 q 1601 244 1592 213 q 1611 303 1611 275 q 1595 397 1611 361 q 1552 453 1579 433 q 1489 481 1525 474 q 1412 490 1453 489 q 1328 489 1371 492 q 1243 486 1285 486 q 1267 547 1254 517 q 1292 607 1279 576 q 1374 607 1331 607 q 1454 619 1418 607 q 1514 659 1490 631 q 1538 744 1538 688 q 1524 791 1538 771 q 1491 825 1511 811 q 1447 845 1471 839 q 1399 851 1422 851 l 1269 851 l 931 0 l 819 0 l 667 383 l 513 0 l 403 0 l 14 971 l 135 971 m 667 688 l 732 850 l 603 850 l 667 688 z "},"":{"ha":1838,"x_min":14,"x_max":1810,"o":"m 135 971 l 457 164 l 606 535 l 431 972 l 901 972 l 728 536 l 875 165 l 1085 694 l 1197 972 l 1365 972 q 1544 931 1463 972 q 1685 822 1626 890 q 1777 667 1744 754 q 1810 486 1810 579 q 1777 304 1810 392 q 1686 149 1744 217 q 1546 41 1628 82 q 1365 0 1464 0 l 1063 0 l 1111 121 l 1365 121 q 1500 151 1439 121 q 1606 233 1561 182 q 1674 350 1650 285 q 1699 486 1699 415 q 1674 622 1699 557 q 1606 738 1650 688 q 1500 819 1561 789 q 1365 850 1439 850 l 1269 850 l 931 0 l 819 0 l 667 383 l 513 0 l 403 0 l 14 971 l 135 971 m 603 850 l 667 688 l 732 850 l 603 850 z "},"":{"ha":2138,"x_min":14,"x_max":2124,"o":"m 14 971 l 135 971 l 457 164 l 606 535 l 431 972 l 901 972 l 728 536 l 875 165 l 1197 972 l 1318 972 l 1472 589 l 1625 971 l 1736 971 l 2124 -1 l 2003 -1 l 1681 807 l 1532 436 l 1706 1 l 1707 1 l 1707 0 l 1236 0 l 1411 436 l 1257 819 l 931 0 l 819 0 l 667 383 l 513 0 l 403 0 l 14 971 m 1472 283 l 1407 121 l 1538 121 l 1472 283 m 603 850 l 667 688 l 732 850 l 603 850 z "},"a":{"ha":915,"x_min":14,"x_max":901,"o":"m 656 0 l 14 0 l 403 972 l 513 972 l 901 0 l 781 0 l 457 808 l 185 122 l 607 122 l 656 0 l 656 0 z "},"b":{"ha":786,"x_min":83,"x_max":758,"o":"m 428 972 q 526 956 481 972 q 606 910 572 940 q 658 838 639 881 q 678 739 678 794 q 662 654 678 690 q 615 581 646 618 q 678 531 651 561 q 723 464 706 500 q 749 388 740 428 q 758 308 758 347 q 742 197 758 253 q 692 98 725 142 q 613 27 660 54 q 503 0 565 0 l 86 0 l 86 610 l 228 610 l 83 972 l 428 972 m 503 122 q 568 139 542 122 q 611 182 594 156 q 635 242 628 208 q 642 308 642 275 q 632 367 642 336 q 604 426 622 399 q 560 471 586 453 q 503 489 535 489 l 197 489 l 197 122 l 503 122 m 253 851 q 301 731 276 790 q 350 610 325 671 l 428 610 q 526 644 486 610 q 567 739 567 678 q 556 792 567 771 q 526 827 544 814 q 481 846 507 840 q 428 851 456 851 l 253 851 z "},"c":{"ha":968,"x_min":28,"x_max":940,"o":"m 28 486 q 61 672 28 582 q 155 831 94 761 q 299 944 215 901 q 483 986 383 986 l 483 864 q 344 832 407 864 q 235 747 281 800 q 164 626 189 694 q 139 486 139 558 q 164 346 139 414 q 235 225 189 278 q 344 140 281 172 q 483 108 407 108 q 624 140 560 108 q 733 224 688 172 q 804 344 779 276 q 829 486 829 413 l 940 486 q 907 300 940 390 q 813 140 874 210 q 669 28 753 69 q 483 -14 585 -14 q 299 28 383 -14 q 155 141 215 71 q 61 301 94 211 q 28 486 28 390 z "},"d":{"ha":851,"x_min":83,"x_max":824,"o":"m 83 0 l 83 728 q 139 590 111 658 q 194 450 167 521 l 194 122 l 381 122 q 515 153 454 122 q 620 234 576 183 q 688 351 664 285 q 713 486 713 417 q 688 622 713 556 q 620 738 664 688 q 515 820 576 789 q 381 851 454 851 l 253 851 q 379 538 315 693 q 503 225 443 383 l 397 189 q 243 582 324 388 q 83 972 163 776 l 381 972 q 560 931 478 972 q 700 822 642 890 q 791 667 758 754 q 824 486 824 579 q 791 306 824 393 q 700 150 758 218 q 560 41 642 82 q 381 0 478 0 l 83 0 z "},"e":{"ha":742,"x_min":83,"x_max":700,"o":"m 83 972 l 700 972 l 700 851 l 194 851 l 194 608 l 589 608 l 589 486 l 194 486 l 194 122 l 700 122 l 700 0 l 83 0 l 83 972 l 83 972 z "},"f":{"ha":742,"x_min":83,"x_max":700,"o":"m 194 0 l 83 0 l 83 972 l 700 972 l 700 851 l 194 851 l 194 608 l 589 608 l 589 486 l 194 486 l 194 0 l 194 0 z "},"g":{"ha":985,"x_min":28,"x_max":940,"o":"m 28 486 q 61 672 28 582 q 155 831 94 761 q 299 944 215 901 q 483 986 383 986 l 483 864 q 344 832 407 864 q 235 747 281 800 q 164 626 189 694 q 139 486 139 558 q 164 346 139 414 q 235 225 189 278 q 344 140 281 172 q 483 108 407 108 q 616 138 554 108 q 724 216 678 167 q 798 329 771 265 q 825 463 825 393 l 824 486 l 606 486 l 606 608 l 928 608 q 940 485 940 547 q 907 299 940 389 q 813 139 874 208 q 669 28 753 69 q 483 -14 585 -14 q 299 28 383 -14 q 155 141 215 71 q 61 301 94 211 q 28 486 28 390 z "},"h":{"ha":832,"x_min":83,"x_max":749,"o":"m 83 0 l 83 972 l 194 972 l 194 565 l 638 767 l 638 972 l 749 972 l 749 0 l 638 0 l 638 369 l 194 168 l 194 0 l 83 0 m 194 299 l 638 500 l 638 635 l 194 435 l 194 299 z "},"i":{"ha":278,"x_min":83,"x_max":194,"o":"m 194 0 l 83 0 l 83 972 l 194 972 l 194 0 l 194 0 z "},"j":{"ha":542,"x_min":14,"x_max":458,"o":"m 14 104 q 150 144 89 111 q 255 229 211 178 q 323 347 299 281 q 347 486 347 413 l 347 851 l 192 851 l 192 972 l 458 972 l 458 486 q 426 306 458 393 q 334 150 393 218 q 193 41 275 82 q 14 0 111 0 l 14 104 z "},"k":{"ha":763,"x_min":83,"x_max":749,"o":"m 194 0 l 83 0 l 83 972 l 194 972 l 194 229 l 618 972 l 749 972 l 472 486 l 749 0 l 618 0 l 407 372 l 194 0 l 194 0 z "},"l":{"ha":714,"x_min":83,"x_max":700,"o":"m 194 122 l 700 122 l 700 0 l 83 0 l 83 972 l 194 972 l 194 122 l 194 122 z "},"m":{"ha":1332,"x_min":14,"x_max":1318,"o":"m 14 1 l 403 972 l 513 972 l 667 589 l 819 972 l 931 972 l 1318 0 l 1197 0 l 875 808 l 728 436 l 901 0 l 431 0 l 606 438 l 457 808 l 135 1 l 14 1 m 667 285 l 603 122 l 732 122 l 667 285 z "},"n":{"ha":832,"x_min":83,"x_max":749,"o":"m 83 0 l 83 972 l 206 972 l 639 194 l 639 851 l 383 851 l 383 972 l 749 972 l 749 0 l 626 0 l 194 788 l 194 0 l 83 0 l 83 0 z "},"o":{"ha":1039,"x_min":28,"x_max":1011,"o":"m 28 486 q 66 678 28 588 q 171 838 104 769 q 327 946 238 906 q 519 986 417 986 q 712 946 622 986 q 868 838 801 906 q 973 678 935 769 q 1011 486 1011 588 q 973 294 1011 385 q 868 135 935 203 q 712 26 801 67 q 519 -14 622 -14 q 327 26 417 -14 q 171 135 238 67 q 66 294 104 203 q 28 486 28 385 m 147 486 q 176 341 147 410 q 256 221 206 272 q 374 139 307 169 q 519 108 442 108 q 665 138 597 108 q 783 220 733 168 q 863 340 833 272 q 892 486 892 408 q 863 633 892 564 q 785 753 835 701 q 667 834 735 804 q 519 864 599 864 q 374 834 442 864 q 256 752 306 804 q 176 631 206 700 q 147 486 147 563 m 525 429 q 485 446 501 429 q 468 486 468 463 q 485 527 468 510 q 525 544 501 544 q 565 527 549 544 q 582 486 582 510 q 565 446 582 463 q 525 429 549 429 z "},"p":{"ha":778,"x_min":83,"x_max":750,"o":"m 83 486 l 383 486 l 83 972 l 454 972 q 572 949 518 972 q 666 885 626 925 q 728 790 706 844 q 750 671 750 735 q 728 552 750 608 q 667 454 706 496 q 573 388 628 413 q 454 364 518 364 l 194 364 l 194 0 l 83 0 l 83 486 m 510 494 q 604 561 569 517 q 639 671 639 606 q 625 744 639 711 q 586 801 611 778 q 527 838 561 825 q 454 851 493 851 l 283 851 l 510 494 z "},"q":{"ha":1000,"x_min":28,"x_max":972,"o":"m 499 -14 q 311 28 397 -14 q 162 141 225 71 q 63 302 99 211 q 28 492 28 393 q 63 683 28 592 q 161 844 99 774 q 310 956 224 914 q 500 997 397 997 q 690 956 603 997 q 839 844 776 914 q 937 682 901 774 q 972 492 972 590 q 930 284 972 383 q 808 110 888 185 q 826 93 818 103 q 842 74 833 83 l 761 -14 l 644 114 l 644 10 q 572 -8 608 -1 q 499 -14 536 -14 m 500 875 q 356 843 422 875 q 243 758 290 811 q 169 636 196 706 q 143 492 143 567 q 169 347 143 417 q 243 225 196 278 q 356 141 290 172 q 500 110 422 110 q 524 110 513 110 q 549 113 536 111 l 549 385 q 639 292 594 339 q 726 196 683 244 q 823 330 789 253 q 857 492 857 407 q 831 636 857 567 q 756 758 804 706 q 643 843 708 811 q 500 875 578 875 m 435 486 q 454 529 435 514 q 500 544 474 544 q 544 528 525 544 q 564 486 564 513 q 544 444 564 461 q 500 428 524 428 q 456 444 476 428 q 435 486 435 460 z "},"r":{"ha":776,"x_min":83,"x_max":749,"o":"m 83 972 l 453 972 q 571 948 517 972 q 665 882 625 924 q 726 784 704 840 q 749 665 749 728 q 692 488 749 561 q 540 378 636 414 q 642 188 592 282 q 749 0 693 93 l 618 0 l 418 364 l 194 364 l 194 0 l 83 0 l 83 486 l 351 486 l 83 972 m 281 851 q 379 669 328 758 q 481 488 431 579 q 594 546 551 497 q 638 665 638 594 q 624 740 638 706 q 585 799 610 774 q 527 838 561 824 q 453 851 493 851 l 281 851 z "},"s":{"ha":672,"x_min":28,"x_max":644,"o":"m 533 274 q 517 356 533 326 q 474 400 501 386 q 411 417 447 414 q 335 423 375 421 q 253 431 294 425 q 174 453 213 436 q 102 505 135 471 q 47 599 69 539 q 28 699 28 649 q 46 801 28 751 q 97 888 64 850 q 176 949 131 926 q 278 972 222 972 l 589 972 l 589 851 l 278 851 q 222 838 247 851 q 178 804 196 825 q 149 756 160 783 q 139 699 139 728 q 163 606 139 638 q 223 562 186 575 q 305 548 260 549 q 394 547 350 547 q 494 524 449 547 q 574 462 540 500 q 626 374 607 424 q 644 274 644 325 q 626 172 644 221 q 575 84 608 122 q 496 23 542 46 q 394 0 450 0 l 56 0 l 56 122 l 394 122 q 451 135 425 122 q 494 169 476 147 q 523 217 513 190 q 533 274 533 244 z "},"t":{"ha":693,"x_min":14,"x_max":679,"o":"m 14 972 l 679 972 l 679 851 l 403 851 l 403 0 l 292 0 l 292 851 l 14 851 l 14 972 l 14 972 z "},"u":{"ha":832,"x_min":83,"x_max":749,"o":"m 194 972 l 194 365 q 210 274 194 318 q 256 197 226 231 q 326 142 285 163 q 417 122 367 122 q 506 143 465 122 q 576 198 547 164 q 622 276 606 232 q 639 365 639 319 l 639 972 l 749 972 l 749 365 q 724 230 749 296 q 656 113 700 164 q 551 31 613 61 q 417 0 490 0 q 282 31 343 0 q 176 113 221 61 q 108 229 132 164 q 83 365 83 294 l 83 972 l 194 972 z "},"v":{"ha":915,"x_min":14,"x_max":901,"o":"m 403 0 l 14 972 l 135 972 l 458 164 l 731 850 l 308 850 l 260 972 l 901 972 l 514 0 l 403 0 l 403 0 z "},"w":{"ha":1332,"x_min":14,"x_max":1318,"o":"m 14 971 l 135 971 l 457 164 l 606 535 l 431 972 l 901 972 l 728 536 l 875 164 l 1197 972 l 1318 972 l 931 0 l 819 0 l 667 383 l 513 0 l 403 0 l 14 971 m 603 850 l 667 688 l 732 850 l 603 850 z "},"x":{"ha":842,"x_min":14,"x_max":828,"o":"m 564 0 l 14 0 l 351 486 l 14 972 l 153 972 l 421 586 l 604 851 l 364 851 l 281 972 l 828 972 l 490 486 l 828 0 l 689 0 l 421 386 l 238 122 l 479 122 l 564 0 l 564 0 z "},"y":{"ha":842,"x_min":14,"x_max":828,"o":"m 14 972 l 150 972 l 421 550 l 614 851 l 357 851 l 279 972 l 828 972 l 476 425 l 476 0 l 365 0 l 365 425 l 14 972 l 14 972 z "},"z":{"ha":693,"x_min":14,"x_max":679,"o":"m 14 972 l 679 972 l 679 851 l 160 122 l 679 122 l 679 0 l 14 0 l 14 122 l 533 851 l 14 851 l 14 972 l 14 972 z "},"!":{"ha":301,"x_min":83,"x_max":218,"o":"m 201 888 l 201 261 l 100 261 l 100 888 l 201 888 m 83 76 q 102 127 83 104 q 150 150 121 150 q 199 127 179 150 q 218 76 218 104 q 199 26 218 49 q 150 3 179 3 q 102 26 121 3 q 83 76 83 49 z "},"\"":{"ha":436,"x_min":83,"x_max":353,"o":"m 251 974 l 353 974 l 353 679 l 251 679 l 251 974 m 185 679 l 83 679 l 83 974 l 185 974 l 185 679 z "},"#":{"ha":907,"x_min":83,"x_max":824,"o":"m 83 332 l 226 332 l 276 553 l 151 553 l 151 664 l 303 664 l 353 885 l 457 885 l 407 664 l 601 664 l 653 885 l 757 885 l 706 664 l 824 664 l 824 553 l 681 553 l 631 332 l 757 332 l 757 221 l 606 221 l 554 0 l 450 0 l 501 221 l 306 221 l 254 0 l 151 0 l 201 221 l 83 221 l 83 332 m 381 553 l 331 332 l 526 332 l 576 553 l 381 553 z "},"$":{"ha":729,"x_min":83,"x_max":644,"o":"m 314 440 q 222 460 264 440 q 149 515 179 481 q 101 595 118 550 q 83 689 83 640 q 101 783 83 738 q 149 862 118 828 q 222 917 179 896 q 314 938 264 938 l 314 1122 l 414 1122 l 414 938 l 594 938 l 594 826 l 414 826 l 414 550 q 510 529 467 550 q 583 474 553 508 q 628 393 613 439 q 644 297 644 347 q 627 205 644 249 q 578 127 610 161 q 505 73 547 93 q 414 53 463 53 l 414 -132 l 314 -132 l 314 53 l 108 53 l 108 164 l 314 164 l 314 440 m 414 164 q 506 201 468 164 q 543 294 543 239 q 535 349 543 322 q 510 395 526 375 q 471 428 494 415 q 417 440 447 440 l 414 440 l 414 164 m 185 689 q 194 631 185 654 q 219 592 203 607 q 260 567 236 576 q 314 550 285 557 l 314 826 q 221 785 257 826 q 185 689 185 744 z "},"%":{"ha":1243,"x_min":83,"x_max":1160,"o":"m 311 388 q 219 408 261 388 q 147 464 178 429 q 100 544 117 499 q 83 636 83 589 q 100 728 83 683 q 147 808 117 774 q 219 864 176 843 q 311 885 261 885 q 403 864 361 885 q 474 808 444 843 q 521 728 504 774 q 538 636 538 683 q 521 544 538 589 q 474 464 504 499 q 403 408 444 429 q 311 388 361 388 m 706 249 q 722 341 706 296 q 769 421 739 386 q 842 476 800 456 q 933 497 883 497 q 1025 476 983 497 q 1097 421 1067 456 q 1143 341 1126 386 q 1160 249 1160 296 q 1143 156 1160 201 q 1097 76 1126 111 q 1025 21 1067 42 q 933 0 983 0 q 842 21 883 0 q 769 76 800 42 q 722 156 739 111 q 706 249 706 201 m 814 885 l 933 885 l 429 0 l 311 0 l 814 885 m 185 636 q 194 585 185 610 q 219 540 203 560 q 260 509 236 521 q 311 497 283 497 q 362 509 339 497 q 401 540 385 521 q 427 585 418 560 q 436 636 436 610 q 427 688 436 663 q 401 732 418 713 q 362 763 385 751 q 311 774 339 774 q 260 763 283 774 q 219 732 236 751 q 194 688 203 713 q 185 636 185 663 m 807 249 q 816 197 807 221 q 842 153 825 172 q 882 122 858 133 q 933 111 906 111 q 985 122 961 111 q 1025 153 1008 133 q 1051 197 1042 172 q 1060 249 1060 221 q 1051 300 1060 275 q 1025 344 1042 325 q 985 376 1008 364 q 933 388 961 388 q 882 376 906 388 q 842 344 858 364 q 816 300 825 325 q 807 249 807 275 z "},"&":{"ha":806,"x_min":83,"x_max":722,"o":"m 83 892 l 675 892 l 675 771 l 250 771 q 333 642 290 707 q 421 517 375 576 l 722 517 l 722 406 l 622 406 q 619 272 622 343 q 593 140 615 200 q 523 40 571 79 q 386 0 475 0 l 319 0 q 224 22 267 0 q 149 79 181 43 q 101 162 118 115 q 83 258 83 208 q 96 338 83 297 q 131 415 108 379 q 187 476 154 450 q 260 510 219 501 q 171 640 215 576 q 83 771 126 704 l 83 892 m 319 406 q 265 393 290 406 q 222 360 240 381 q 194 314 204 340 q 185 258 185 288 q 194 203 185 229 q 222 156 204 176 q 264 124 239 136 q 319 111 289 111 l 386 111 q 441 124 417 111 q 483 156 465 136 q 511 203 501 176 q 521 258 521 229 l 521 406 l 319 406 z "},"'":{"ha":268,"x_min":83,"x_max":185,"o":"m 185 675 l 83 675 l 83 969 l 185 969 l 185 675 l 185 675 z "},"(":{"ha":419,"x_min":83,"x_max":336,"o":"m 83 824 q 102 926 83 876 q 154 1015 121 976 q 234 1076 188 1053 q 336 1100 281 1100 l 336 989 q 275 975 303 989 q 227 938 247 961 q 196 885 207 915 q 185 824 185 856 l 185 197 q 196 135 185 165 q 227 82 207 106 q 275 44 247 58 q 336 31 303 31 l 336 -79 q 234 -56 281 -79 q 154 6 188 -33 q 102 94 121 44 q 83 197 83 144 l 83 824 l 83 824 z "},")":{"ha":419,"x_min":83,"x_max":336,"o":"m 336 181 q 317 78 336 128 q 265 -11 299 28 q 185 -73 232 -50 q 83 -96 139 -96 l 83 14 q 144 28 117 14 q 192 65 172 42 q 224 119 213 89 q 235 181 235 149 l 235 807 q 224 869 235 839 q 192 922 213 899 q 144 958 172 944 q 83 972 117 972 l 83 1083 q 185 1060 139 1083 q 265 998 232 1036 q 317 910 299 960 q 336 807 336 860 l 336 181 l 336 181 z "},"*":{"ha":433,"x_min":83,"x_max":350,"o":"m 150 825 l 83 867 l 117 931 l 183 889 l 183 972 l 250 972 l 250 889 l 317 931 l 350 867 l 285 825 l 350 783 l 317 719 l 250 761 l 250 678 l 183 678 l 183 761 l 117 719 l 83 783 l 150 825 l 150 825 z "},"+":{"ha":571,"x_min":83,"x_max":488,"o":"m 83 494 l 235 494 l 235 661 l 336 661 l 336 494 l 488 494 l 488 385 l 336 385 l 336 218 l 235 218 l 235 385 l 83 385 l 83 494 l 83 494 z "},",":{"ha":301,"x_min":83,"x_max":218,"o":"m 151 -7 q 103 16 122 -7 q 83 67 83 39 q 103 117 83 94 q 151 140 122 140 q 199 117 181 140 q 218 67 218 94 l 218 -81 l 151 -81 l 151 -7 l 151 -7 z "},"-":{"ha":571,"x_min":83,"x_max":488,"o":"m 488 418 l 83 418 l 83 528 l 488 528 l 488 418 l 488 418 z "},".":{"ha":301,"x_min":83,"x_max":218,"o":"m 83 74 q 102 124 83 101 q 150 147 121 147 q 199 124 179 147 q 218 74 218 101 q 199 23 218 46 q 150 0 179 0 q 102 23 121 0 q 83 74 83 46 z "},"/":{"ha":706,"x_min":83,"x_max":622,"o":"m 514 1158 l 622 1158 l 192 -21 l 83 -21 l 514 1158 l 514 1158 z "},":":{"ha":301,"x_min":83,"x_max":218,"o":"m 150 556 q 102 578 121 556 q 83 629 83 601 q 101 681 83 657 q 150 704 119 704 q 199 681 181 704 q 218 629 218 658 q 199 578 218 601 q 150 556 179 556 m 150 188 q 102 210 121 188 q 83 261 83 233 q 102 312 83 289 q 150 335 121 335 q 199 312 179 335 q 218 261 218 289 q 199 210 218 233 q 150 188 179 188 z "},";":{"ha":301,"x_min":83,"x_max":218,"o":"m 150 171 q 102 194 121 171 q 83 244 83 217 q 102 295 83 272 q 150 318 121 318 q 199 295 179 318 q 218 244 218 272 l 218 97 l 150 97 l 150 171 m 83 613 q 101 664 83 640 q 150 688 119 688 q 199 665 181 688 q 218 613 218 642 q 199 562 218 585 q 150 539 179 539 q 102 562 121 539 q 83 613 83 585 z "},"<":{"ha":571,"x_min":83,"x_max":488,"o":"m 488 131 l 83 371 l 83 481 l 488 721 l 488 594 l 203 425 l 488 257 l 488 131 l 488 131 z "},"=":{"ha":571,"x_min":83,"x_max":488,"o":"m 83 611 l 488 611 l 488 500 l 83 500 l 83 611 m 83 353 l 488 353 l 488 243 l 83 243 l 83 353 z "},">":{"ha":571,"x_min":83,"x_max":488,"o":"m 83 718 l 488 478 l 488 368 l 83 128 l 83 254 l 368 422 l 83 592 l 83 718 l 83 718 z "},"?":{"ha":706,"x_min":83,"x_max":622,"o":"m 83 639 q 100 731 83 686 q 147 811 117 776 q 219 867 178 846 q 311 888 261 888 l 394 888 q 486 867 444 888 q 558 811 528 846 q 606 731 589 776 q 622 639 622 686 q 606 549 622 593 q 561 469 590 504 q 492 413 532 435 q 403 390 451 392 l 403 261 l 303 261 l 303 500 q 381 502 342 500 q 451 517 419 504 q 501 558 482 529 q 521 639 521 586 q 511 690 521 665 q 485 733 501 714 q 444 765 468 753 q 394 776 421 776 l 311 776 q 260 765 283 776 q 219 734 236 753 q 194 690 203 715 q 185 639 185 665 l 83 639 m 285 76 q 304 127 285 104 q 353 150 324 150 q 401 127 382 150 q 419 76 419 104 q 401 26 419 49 q 353 3 382 3 q 304 26 324 3 q 285 76 285 49 z "},"@":{"ha":1110,"x_min":83,"x_max":1026,"o":"m 83 515 q 117 708 83 615 q 214 873 151 801 q 363 988 276 944 q 554 1032 450 1032 q 745 988 658 1032 q 894 872 832 944 q 992 707 957 800 q 1026 515 1026 614 l 1026 221 l 554 221 q 445 246 494 221 q 360 312 396 271 q 305 406 325 353 q 285 515 285 458 q 304 626 285 572 q 359 720 324 679 q 444 786 394 761 q 554 811 494 811 q 664 786 614 811 q 749 720 714 761 q 804 626 785 679 q 824 515 824 572 l 824 332 l 925 332 l 925 515 q 898 667 925 593 q 822 797 871 740 q 704 887 772 853 q 554 921 636 921 q 404 887 472 921 q 288 796 336 853 q 212 666 239 739 q 185 515 185 593 q 212 365 185 438 q 288 235 239 292 q 405 144 338 178 q 554 110 472 110 l 824 110 l 824 0 l 554 0 q 363 43 450 0 q 214 158 276 86 q 117 323 151 231 q 83 515 83 415 m 386 515 q 399 447 386 481 q 433 388 411 414 q 486 347 456 363 q 554 332 517 332 l 722 332 l 722 515 q 710 583 722 550 q 675 643 697 617 q 622 685 653 669 q 554 700 592 700 q 486 685 517 700 q 433 643 456 669 q 399 583 411 617 q 386 515 386 550 z "},"[":{"ha":419,"x_min":83,"x_max":336,"o":"m 336 -68 l 83 -68 l 83 1111 l 336 1111 l 336 1000 l 185 1000 l 185 42 l 336 42 l 336 -68 l 336 -68 z "},"\\":{"ha":579,"x_min":83,"x_max":496,"o":"m 165 961 l 496 0 l 413 0 l 83 961 l 165 961 l 165 961 z "},"]":{"ha":419,"x_min":83,"x_max":336,"o":"m 83 1111 l 336 1111 l 336 -68 l 83 -68 l 83 42 l 235 42 l 235 1000 l 83 1000 l 83 1111 l 83 1111 z "},"^":{"ha":743,"x_min":83,"x_max":660,"o":"m 83 364 l 335 975 l 410 975 l 660 364 l 575 364 l 374 878 l 371 878 l 168 364 l 83 364 l 83 364 z "},"_":{"ha":706,"x_min":83,"x_max":622,"o":"m 622 0 l 83 0 l 83 110 l 622 110 l 622 0 l 622 0 z "},"`":{"ha":390,"x_min":83,"x_max":307,"o":"m 201 1224 l 307 1033 l 231 1033 l 83 1224 l 201 1224 l 201 1224 z "},"{":{"ha":447,"x_min":83,"x_max":364,"o":"m 83 521 q 182 619 182 521 q 172 730 182 675 q 163 840 163 785 q 208 969 163 925 q 338 1014 253 1014 l 364 1014 l 364 942 q 272 919 299 942 q 246 828 246 896 q 254 730 246 779 q 263 632 263 681 q 245 543 263 582 q 175 489 228 504 l 175 486 q 243 434 224 472 q 263 349 263 396 q 254 247 263 297 q 246 146 246 197 q 272 53 246 78 q 364 29 299 29 l 364 -43 q 278 -34 315 -43 q 215 -4 242 -25 q 176 51 189 17 q 163 139 163 86 q 172 247 163 193 q 182 356 182 301 q 83 453 182 453 l 83 521 l 83 521 z "},"|":{"ha":247,"x_min":83,"x_max":164,"o":"m 164 -114 l 83 -114 l 83 1042 l 164 1042 l 164 -114 l 164 -114 z "},"}":{"ha":447,"x_min":83,"x_max":364,"o":"m 83 -39 l 83 33 q 174 58 147 32 q 201 150 201 85 q 192 248 201 199 q 183 346 183 297 q 201 435 183 394 q 269 490 219 475 l 269 493 q 201 548 219 508 q 183 636 183 588 q 192 734 183 685 q 201 832 201 783 q 174 922 201 897 q 83 946 147 947 l 83 1018 q 167 1010 129 1018 q 230 982 204 1001 q 270 929 256 963 q 285 844 285 896 q 275 734 285 789 q 265 624 265 679 q 364 525 265 525 l 364 457 q 265 360 265 457 q 275 251 265 306 q 285 143 285 197 q 240 8 285 56 q 108 -39 196 -39 l 83 -39 z "},"~":{"ha":776,"x_min":86,"x_max":690,"o":"m 86 326 q 93 397 86 361 q 117 462 100 433 q 161 508 133 490 q 231 526 189 526 q 315 508 272 526 q 397 469 357 490 q 477 429 438 447 q 553 411 517 411 q 586 422 574 411 q 606 450 599 433 q 615 486 613 467 q 618 522 618 506 l 690 522 l 690 501 q 683 436 690 468 q 658 379 675 404 q 615 338 642 354 q 551 322 589 322 q 463 340 506 322 q 378 381 419 358 q 301 421 338 403 q 231 439 264 439 q 194 428 208 439 q 173 400 181 417 q 162 364 165 383 q 158 326 158 344 l 86 326 l 86 326 z "},"®":{"ha":900,"x_min":83,"x_max":817,"o":"m 451 153 q 301 188 368 153 q 185 280 233 222 q 110 412 136 338 q 83 564 83 486 q 110 715 83 642 q 185 846 136 789 q 301 938 233 903 q 451 972 368 972 q 602 938 535 972 q 717 846 669 903 q 791 715 765 789 q 817 564 817 642 q 791 412 817 486 q 717 280 765 338 q 602 188 669 222 q 451 153 535 153 m 451 918 q 322 887 379 918 q 226 806 265 856 q 165 691 186 756 q 144 560 144 626 q 166 430 144 493 q 227 317 188 367 q 324 238 267 268 q 451 207 381 207 q 579 238 522 207 q 675 320 636 269 q 735 435 714 371 q 756 564 756 499 q 735 692 756 629 q 674 806 714 756 q 578 887 635 856 q 451 918 522 918 m 285 538 l 431 538 l 285 803 l 471 803 q 531 789 504 803 q 578 752 558 775 q 609 699 599 729 q 619 639 619 669 q 594 549 619 592 q 525 488 569 507 l 619 313 l 554 313 l 464 476 l 340 476 l 340 313 l 285 313 l 285 538 m 385 742 l 494 540 q 545 578 526 550 q 564 639 564 607 q 539 710 564 679 q 471 742 514 742 l 385 742 z "},"©":{"ha":900,"x_min":83,"x_max":817,"o":"m 83 572 q 110 724 83 650 q 185 854 136 797 q 301 946 233 911 q 451 981 368 981 q 602 946 535 981 q 717 854 669 911 q 791 724 765 797 q 817 572 817 650 q 791 420 817 494 q 717 288 765 346 q 602 196 669 231 q 451 161 535 161 q 300 196 368 161 q 184 288 232 231 q 110 420 136 346 q 83 572 83 494 m 451 926 q 322 895 379 926 q 226 814 265 864 q 165 699 186 764 q 144 568 144 635 q 166 438 144 501 q 227 326 188 375 q 324 246 267 276 q 451 215 381 215 q 579 247 522 215 q 675 328 636 278 q 735 443 714 379 q 756 572 756 507 q 735 701 756 638 q 674 814 714 764 q 578 895 635 864 q 451 926 522 926 m 450 315 q 358 336 400 315 q 287 392 317 357 q 240 471 257 426 q 224 563 224 515 q 240 655 224 610 q 288 735 257 700 q 359 790 318 769 q 450 811 400 811 l 450 750 q 381 734 413 750 q 326 692 349 718 q 292 633 304 667 q 279 563 279 599 q 292 492 279 526 q 326 433 304 458 q 381 391 349 407 q 450 375 413 375 q 519 391 488 375 q 573 433 550 407 q 608 493 596 460 q 621 563 621 526 l 676 563 q 660 471 676 515 q 613 392 643 426 q 542 336 583 357 q 450 315 500 315 z "},"™":{"ha":897,"x_min":83,"x_max":814,"o":"m 274 571 q 353 772 314 672 q 433 974 393 872 l 479 974 q 513 895 497 935 q 543 815 528 856 q 574 895 558 856 q 607 974 589 935 l 653 974 q 734 772 694 874 q 814 571 774 671 l 764 571 q 698 739 732 656 q 629 906 664 822 q 599 828 614 867 q 568 751 583 790 q 605 662 588 707 q 640 572 622 617 l 640 571 l 446 571 q 481 662 464 617 q 518 751 499 707 q 488 828 503 790 q 457 906 474 867 q 391 738 424 822 q 322 571 358 654 l 274 571 m 358 974 l 358 924 l 244 924 l 244 571 l 199 571 l 199 924 l 83 924 l 83 974 l 358 974 m 517 621 l 571 621 l 543 689 l 517 621 z "},"´":{"ha":390,"x_min":83,"x_max":307,"o":"m 190 1224 l 307 1224 l 160 1033 l 83 1033 l 190 1224 l 190 1224 z "},"¨":{"ha":426,"x_min":83,"x_max":360,"o":"m 300 1036 q 256 1056 272 1036 q 239 1103 239 1076 q 256 1150 239 1129 q 300 1171 272 1171 q 344 1149 328 1171 q 360 1103 360 1128 q 343 1057 360 1078 q 300 1036 326 1036 m 146 1036 q 101 1056 118 1036 q 83 1103 83 1076 q 101 1150 83 1129 q 146 1171 118 1171 q 189 1149 174 1171 q 204 1103 204 1128 q 188 1057 204 1078 q 146 1036 172 1036 z "},"˚":{"ha":439,"x_min":96,"x_max":351,"o":"m 224 942 q 172 953 196 942 q 132 985 149 965 q 106 1029 115 1004 q 96 1081 96 1054 q 106 1133 96 1107 q 132 1178 115 1158 q 172 1209 149 1197 q 224 1221 196 1221 q 275 1209 251 1221 q 315 1178 299 1197 q 342 1133 332 1158 q 351 1081 351 1107 q 342 1029 351 1054 q 315 985 332 1004 q 275 953 299 965 q 224 942 251 942 m 153 1081 q 172 1027 153 1051 q 224 1003 192 1003 q 275 1026 256 1003 q 294 1081 294 1050 q 275 1135 294 1111 q 224 1158 256 1158 q 172 1135 192 1158 q 153 1081 153 1111 z "},"ˆ":{"ha":471,"x_min":83,"x_max":388,"o":"m 83 1033 l 197 1224 l 271 1224 l 388 1033 l 306 1033 l 235 1160 l 232 1160 l 163 1033 l 83 1033 l 83 1033 z "},"˜":{"ha":469,"x_min":86,"x_max":386,"o":"m 86 1033 q 89 1078 86 1054 q 101 1122 92 1101 q 126 1157 110 1143 q 168 1171 142 1171 q 204 1163 186 1171 q 238 1145 222 1154 q 267 1128 253 1136 q 294 1119 282 1119 q 323 1139 318 1119 q 329 1176 328 1158 l 386 1176 q 383 1131 386 1154 q 372 1087 381 1107 q 346 1054 363 1067 q 301 1042 329 1042 q 265 1050 282 1042 q 232 1067 247 1058 q 203 1085 217 1076 q 176 1093 189 1093 q 160 1086 167 1093 q 151 1070 154 1079 q 146 1051 147 1061 q 144 1033 144 1040 l 86 1033 l 86 1033 z "},"˙":{"ha":288,"x_min":83,"x_max":204,"o":"m 146 1029 q 101 1049 118 1029 q 83 1096 83 1069 q 101 1143 83 1122 q 146 1164 118 1164 q 189 1142 174 1164 q 204 1096 204 1121 q 188 1050 204 1071 q 146 1029 172 1029 z "},"¸":{"ha":375,"x_min":83,"x_max":292,"o":"m 101 -147 q 167 -167 132 -167 q 203 -158 186 -167 q 219 -125 219 -149 q 209 -98 219 -108 q 184 -81 199 -87 q 153 -72 169 -75 q 125 -68 138 -69 l 182 42 l 247 42 l 207 -28 q 267 -58 242 -33 q 292 -119 292 -83 q 254 -201 292 -176 q 165 -226 217 -226 q 83 -204 121 -226 l 101 -147 z "},"˝":{"ha":533,"x_min":83,"x_max":471,"o":"m 247 1035 l 354 1225 l 471 1225 l 324 1035 l 247 1035 m 83 1035 l 190 1225 l 307 1225 l 160 1035 l 83 1035 z "},"ˇ":{"ha":475,"x_min":83,"x_max":392,"o":"m 83 1224 l 165 1224 l 238 1097 l 240 1097 l 311 1224 l 392 1224 l 278 1033 l 200 1033 l 83 1224 l 83 1224 z "},"÷":{"ha":571,"x_min":83,"x_max":488,"o":"m 83 425 l 83 535 l 488 535 l 488 425 l 83 425 m 218 296 q 237 347 218 324 q 285 369 256 369 q 333 347 314 369 q 353 296 353 324 q 334 244 353 267 q 285 222 315 222 q 236 244 254 222 q 218 296 218 267 m 285 590 q 237 613 256 590 q 218 664 218 636 q 237 715 218 692 q 285 738 256 738 q 333 715 314 738 q 353 664 353 692 q 333 613 353 636 q 285 590 314 590 z "},"¼":{"ha":947,"x_min":83,"x_max":864,"o":"m 490 194 l 760 583 l 835 583 l 835 194 l 864 194 l 864 124 l 835 124 l 835 18 l 769 18 l 769 124 l 490 124 l 490 194 m 172 0 l 632 893 l 700 893 l 240 0 l 172 0 m 83 729 q 164 806 124 767 q 244 886 204 846 l 244 322 l 181 322 l 181 728 l 83 633 l 83 729 m 769 194 l 769 490 l 565 194 l 769 194 z "},"½":{"ha":979,"x_min":83,"x_max":896,"o":"m 553 60 q 573 134 553 104 q 623 185 593 164 q 688 224 653 207 q 753 263 724 242 q 803 313 783 285 q 824 386 824 342 q 797 463 824 429 q 724 496 769 496 q 651 462 679 496 q 624 386 624 428 l 560 386 q 572 453 560 421 q 605 511 583 486 q 657 551 626 536 q 724 567 688 567 q 790 551 760 567 q 842 511 821 536 q 876 453 864 486 q 889 386 889 421 q 870 302 889 336 q 824 243 851 268 q 763 200 796 218 q 701 165 729 182 q 655 131 674 149 q 636 89 636 114 l 636 72 l 896 72 l 896 1 l 553 1 l 553 60 m 165 -17 l 625 876 l 694 876 l 233 -17 l 165 -17 m 83 719 q 164 797 124 757 q 244 876 204 836 l 244 311 l 181 311 l 181 718 l 83 624 l 83 719 z "},"¾":{"ha":1050,"x_min":83,"x_max":967,"o":"m 864 579 l 938 579 l 938 190 l 967 190 l 967 119 l 938 119 l 938 14 l 874 14 l 874 119 l 594 119 l 594 190 l 864 579 m 147 481 q 170 420 147 447 q 228 393 193 393 l 282 393 q 340 420 317 393 q 363 481 363 447 q 351 532 363 514 q 320 558 339 550 q 277 568 301 567 q 228 569 253 569 l 228 640 l 347 817 l 100 817 l 100 888 l 444 888 l 444 817 q 384 726 414 771 q 322 636 354 681 q 399 576 372 613 q 426 481 426 539 q 416 422 426 450 q 387 371 406 393 q 341 335 368 349 q 282 322 314 322 l 228 322 q 171 336 197 322 q 125 372 144 350 q 94 423 106 394 q 83 481 83 451 l 147 481 m 303 1 l 764 894 l 832 894 l 371 1 l 303 1 m 668 190 l 874 190 l 874 486 l 668 190 z "},"×":{"ha":571,"x_min":83,"x_max":488,"o":"m 488 463 l 357 318 l 488 175 l 417 97 l 286 240 l 154 97 l 83 175 l 214 318 l 83 463 l 154 540 l 286 397 l 417 540 l 488 463 l 488 463 z "},"Ä":{"ha":915,"x_min":14,"x_max":901,"o":"m 14 0 l 403 972 l 513 972 l 901 0 l 781 0 q 618 403 696 201 q 457 808 540 606 q 323 464 390 635 q 185 122 256 293 l 607 122 q 631 61 619 92 q 656 0 643 31 l 14 0 m 536 1036 q 492 1056 508 1036 q 475 1103 475 1076 q 492 1150 475 1129 q 536 1171 508 1171 q 580 1149 564 1171 q 596 1103 596 1128 q 579 1057 596 1078 q 536 1036 563 1036 m 382 1036 q 337 1056 354 1036 q 319 1103 319 1076 q 337 1150 319 1129 q 382 1171 354 1171 q 425 1149 410 1171 q 440 1103 440 1128 q 424 1057 440 1078 q 382 1036 408 1036 z "},"ä":{"ha":915,"x_min":14,"x_max":901,"o":"m 14 0 l 403 972 l 513 972 l 901 0 l 781 0 q 618 403 696 201 q 457 808 540 606 q 323 464 390 635 q 185 122 256 293 l 607 122 q 631 61 619 92 q 656 0 643 31 l 14 0 m 536 1036 q 492 1056 508 1036 q 475 1103 475 1076 q 492 1150 475 1129 q 536 1171 508 1171 q 580 1149 564 1171 q 596 1103 596 1128 q 579 1057 596 1078 q 536 1036 563 1036 m 382 1036 q 337 1056 354 1036 q 319 1103 319 1076 q 337 1150 319 1129 q 382 1171 354 1171 q 425 1149 410 1171 q 440 1103 440 1128 q 424 1057 440 1078 q 382 1036 408 1036 z "},"’":{"ha":163,"x_min":14,"x_max":149,"o":"m 82 879 q 33 902 53 879 q 14 953 14 925 q 33 1003 14 981 q 82 1026 53 1026 q 130 1003 111 1026 q 149 953 149 981 l 149 806 l 82 806 l 82 879 l 82 879 z "},"”":{"ha":317,"x_min":14,"x_max":303,"o":"m 82 879 q 33 902 53 879 q 14 953 14 925 q 33 1003 14 981 q 82 1026 53 1026 q 130 1003 111 1026 q 149 953 149 981 l 149 806 l 82 806 l 82 879 m 236 879 q 188 902 207 879 q 168 953 168 925 q 188 1003 168 981 q 236 1026 207 1026 q 284 1003 265 1026 q 303 953 303 981 l 303 806 l 236 806 l 236 879 z "},"“":{"ha":317,"x_min":14,"x_max":303,"o":"m 235 953 q 283 930 264 953 q 303 879 303 907 q 283 828 303 851 q 235 806 264 806 q 187 828 206 806 q 168 879 168 851 l 168 1026 l 235 1026 l 235 953 m 81 953 q 129 930 110 953 q 149 879 149 907 q 129 828 149 851 q 81 806 110 806 q 33 828 51 806 q 14 879 14 851 l 14 1026 l 81 1026 l 81 953 z "},"‘":{"ha":163,"x_min":14,"x_max":149,"o":"m 81 953 q 129 930 110 953 q 149 879 149 907 q 129 828 149 851 q 81 806 110 806 q 33 828 51 806 q 14 879 14 851 l 14 1026 l 81 1026 l 81 953 l 81 953 z "},"Ç":{"ha":968,"x_min":28,"x_max":940,"o":"m 28 486 q 61 672 28 582 q 155 831 94 761 q 299 944 215 901 q 483 986 383 986 l 483 864 q 344 832 407 864 q 235 747 281 800 q 164 626 189 694 q 139 486 139 558 q 164 346 139 414 q 235 225 189 278 q 344 140 281 172 q 483 108 407 108 q 624 140 560 108 q 733 224 688 172 q 804 344 779 276 q 829 486 829 413 l 940 486 q 907 300 940 390 q 813 140 874 210 q 669 28 753 69 q 483 -14 585 -14 q 299 28 383 -14 q 155 141 215 71 q 61 301 94 211 q 28 486 28 390 m 397 -147 q 463 -167 428 -167 q 499 -158 482 -167 q 515 -125 515 -149 q 505 -98 515 -108 q 480 -81 494 -87 q 449 -72 465 -75 q 421 -68 433 -69 l 478 42 l 543 42 l 503 -28 q 563 -58 538 -33 q 588 -119 588 -83 q 550 -201 588 -176 q 461 -226 513 -226 q 379 -204 417 -226 l 397 -147 z "},"Å":{"ha":915,"x_min":14,"x_max":901,"o":"m 14 0 l 403 972 l 513 972 l 901 0 l 781 0 q 618 403 696 201 q 457 808 540 606 q 323 464 390 635 q 185 122 256 293 l 607 122 q 631 61 619 92 q 656 0 643 31 l 14 0 m 457 942 q 406 953 429 942 q 365 985 382 965 q 339 1029 349 1004 q 329 1081 329 1054 q 339 1133 329 1107 q 365 1178 349 1158 q 406 1209 382 1197 q 457 1221 429 1221 q 508 1209 485 1221 q 549 1178 532 1197 q 575 1133 565 1158 q 585 1081 585 1107 q 575 1029 585 1054 q 549 985 565 1004 q 508 953 532 965 q 457 942 485 942 m 386 1081 q 406 1027 386 1051 q 457 1003 425 1003 q 508 1026 489 1003 q 528 1081 528 1050 q 508 1135 528 1111 q 457 1158 489 1158 q 406 1135 425 1158 q 386 1081 386 1111 z "},"É":{"ha":742,"x_min":83,"x_max":700,"o":"m 83 972 l 700 972 l 700 851 l 194 851 l 194 608 l 589 608 l 589 486 l 194 486 l 194 122 l 700 122 l 700 0 l 83 0 l 83 972 m 365 1224 l 482 1224 l 335 1033 l 258 1033 l 365 1224 z "},"Ñ":{"ha":832,"x_min":83,"x_max":749,"o":"m 83 972 l 206 972 l 639 194 l 639 851 l 383 851 l 383 972 l 749 972 l 749 0 l 626 0 l 194 788 l 194 0 l 83 0 l 83 972 m 265 1033 q 268 1078 265 1054 q 280 1122 271 1101 q 305 1157 289 1143 q 347 1171 321 1171 q 383 1163 365 1171 q 417 1145 401 1154 q 447 1128 432 1136 q 474 1119 461 1119 q 502 1139 497 1119 q 508 1176 507 1158 l 565 1176 q 563 1131 565 1154 q 551 1087 560 1107 q 525 1054 542 1067 q 481 1042 508 1042 q 444 1050 461 1042 q 411 1067 426 1058 q 382 1085 396 1076 q 356 1093 368 1093 q 340 1086 346 1093 q 330 1070 333 1079 q 325 1051 326 1061 q 324 1033 324 1040 l 265 1033 z "},"Ö":{"ha":1039,"x_min":28,"x_max":1011,"o":"m 28 486 q 66 678 28 588 q 171 838 104 769 q 327 946 238 906 q 519 986 417 986 q 712 946 622 986 q 868 838 801 906 q 973 678 935 769 q 1011 486 1011 588 q 973 294 1011 385 q 868 135 935 203 q 712 26 801 67 q 519 -14 622 -14 q 327 26 417 -14 q 171 135 238 67 q 66 294 104 203 q 28 486 28 385 m 147 486 q 176 341 147 410 q 256 221 206 272 q 374 139 307 169 q 519 108 442 108 q 665 138 597 108 q 783 220 733 168 q 863 340 833 272 q 892 486 892 408 q 863 633 892 564 q 785 753 835 701 q 667 834 735 804 q 519 864 599 864 q 374 834 442 864 q 256 752 306 804 q 176 631 206 700 q 147 486 147 563 m 525 429 q 485 446 501 429 q 468 486 468 463 q 485 527 468 510 q 525 544 501 544 q 565 527 549 544 q 582 486 582 510 q 565 446 582 463 q 525 429 549 429 m 597 1036 q 553 1056 569 1036 q 536 1103 536 1076 q 553 1150 536 1129 q 597 1171 569 1171 q 641 1149 625 1171 q 657 1103 657 1128 q 640 1057 657 1078 q 597 1036 624 1036 m 443 1036 q 398 1056 415 1036 q 381 1103 381 1076 q 398 1150 381 1129 q 443 1171 415 1171 q 486 1149 471 1171 q 501 1103 501 1128 q 485 1057 501 1078 q 443 1036 469 1036 z "},"Ü":{"ha":832,"x_min":83,"x_max":749,"o":"m 194 972 l 194 365 q 210 274 194 318 q 256 197 226 231 q 326 142 285 163 q 417 122 367 122 q 506 143 465 122 q 576 198 547 164 q 622 276 606 232 q 639 365 639 319 l 639 972 l 749 972 l 749 365 q 724 230 749 296 q 656 113 700 164 q 551 31 613 61 q 417 0 490 0 q 282 31 343 0 q 176 113 221 61 q 108 229 132 164 q 83 365 83 294 l 83 972 l 194 972 m 494 1036 q 450 1056 467 1036 q 433 1103 433 1076 q 450 1150 433 1129 q 494 1171 467 1171 q 538 1149 522 1171 q 554 1103 554 1128 q 538 1057 554 1078 q 494 1036 521 1036 m 340 1036 q 295 1056 313 1036 q 278 1103 278 1076 q 295 1150 278 1129 q 340 1171 313 1171 q 383 1149 368 1171 q 399 1103 399 1128 q 383 1057 399 1078 q 340 1036 367 1036 z "},"á":{"ha":915,"x_min":14,"x_max":901,"o":"m 14 0 l 403 972 l 513 972 l 901 0 l 781 0 q 618 403 696 201 q 457 808 540 606 q 323 464 390 635 q 185 122 256 293 l 607 122 q 631 61 619 92 q 656 0 643 31 l 14 0 m 569 1224 l 422 1033 l 346 1033 l 453 1224 l 569 1224 z "},"à":{"ha":915,"x_min":14,"x_max":901,"o":"m 14 0 l 403 972 l 513 972 l 901 0 l 781 0 q 618 403 696 201 q 457 808 540 606 q 323 464 390 635 q 185 122 256 293 l 607 122 q 631 61 619 92 q 656 0 643 31 l 14 0 m 569 1033 l 493 1033 l 346 1224 l 464 1224 l 569 1033 z "},"â":{"ha":915,"x_min":14,"x_max":901,"o":"m 14 0 l 403 972 l 513 972 l 901 0 l 781 0 q 618 403 696 201 q 457 808 540 606 q 323 464 390 635 q 185 122 256 293 l 607 122 q 631 61 619 92 q 656 0 643 31 l 14 0 m 419 1224 l 493 1224 l 610 1033 l 528 1033 l 457 1160 l 454 1160 l 385 1033 l 306 1033 l 419 1224 z "},"ã":{"ha":915,"x_min":14,"x_max":901,"o":"m 14 0 l 403 972 l 513 972 l 901 0 l 781 0 q 618 403 696 201 q 457 808 540 606 q 323 464 390 635 q 185 122 256 293 l 607 122 q 631 61 619 92 q 656 0 643 31 l 14 0 m 307 1033 q 310 1078 307 1054 q 322 1122 313 1101 q 347 1157 331 1143 q 389 1171 363 1171 q 425 1163 407 1171 q 458 1145 443 1154 q 488 1128 474 1136 q 515 1119 503 1119 q 544 1139 539 1119 q 550 1176 549 1158 l 607 1176 q 604 1131 607 1154 q 592 1087 601 1107 q 567 1054 583 1067 q 522 1042 550 1042 q 485 1050 503 1042 q 453 1067 468 1058 q 424 1085 438 1076 q 397 1093 410 1093 q 381 1086 388 1093 q 372 1070 375 1079 q 367 1051 368 1061 q 365 1033 365 1040 l 307 1033 z "},"å":{"ha":915,"x_min":14,"x_max":901,"o":"m 14 0 l 403 972 l 513 972 l 901 0 l 781 0 q 618 403 696 201 q 457 808 540 606 q 323 464 390 635 q 185 122 256 293 l 607 122 q 631 61 619 92 q 656 0 643 31 l 14 0 m 457 942 q 406 953 429 942 q 365 985 382 965 q 339 1029 349 1004 q 329 1081 329 1054 q 339 1133 329 1107 q 365 1178 349 1158 q 406 1209 382 1197 q 457 1221 429 1221 q 508 1209 485 1221 q 549 1178 532 1197 q 575 1133 565 1158 q 585 1081 585 1107 q 575 1029 585 1054 q 549 985 565 1004 q 508 953 532 965 q 457 942 485 942 m 386 1081 q 406 1027 386 1051 q 457 1003 425 1003 q 508 1026 489 1003 q 528 1081 528 1050 q 508 1135 528 1111 q 457 1158 489 1158 q 406 1135 425 1158 q 386 1081 386 1111 z "},"ç":{"ha":968,"x_min":28,"x_max":940,"o":"m 28 486 q 61 672 28 582 q 155 831 94 761 q 299 944 215 901 q 483 986 383 986 l 483 864 q 344 832 407 864 q 235 747 281 800 q 164 626 189 694 q 139 486 139 558 q 164 346 139 414 q 235 225 189 278 q 344 140 281 172 q 483 108 407 108 q 624 140 560 108 q 733 224 688 172 q 804 344 779 276 q 829 486 829 413 l 940 486 q 907 300 940 390 q 813 140 874 210 q 669 28 753 69 q 483 -14 585 -14 q 299 28 383 -14 q 155 141 215 71 q 61 301 94 211 q 28 486 28 390 m 397 -147 q 463 -167 428 -167 q 499 -158 482 -167 q 515 -125 515 -149 q 505 -98 515 -108 q 480 -81 494 -87 q 449 -72 465 -75 q 421 -68 433 -69 l 478 42 l 543 42 l 503 -28 q 563 -58 538 -33 q 588 -119 588 -83 q 550 -201 588 -176 q 461 -226 513 -226 q 379 -204 417 -226 l 397 -147 z "},"é":{"ha":742,"x_min":83,"x_max":700,"o":"m 83 972 l 700 972 l 700 851 l 194 851 l 194 608 l 589 608 l 589 486 l 194 486 l 194 122 l 700 122 l 700 0 l 83 0 l 83 972 m 365 1224 l 482 1224 l 335 1033 l 258 1033 l 365 1224 z "},"è":{"ha":742,"x_min":83,"x_max":700,"o":"m 83 972 l 700 972 l 700 851 l 194 851 l 194 608 l 589 608 l 589 486 l 194 486 l 194 122 l 700 122 l 700 0 l 83 0 l 83 972 m 376 1224 l 482 1033 l 406 1033 l 258 1224 l 376 1224 z "},"ê":{"ha":742,"x_min":83,"x_max":700,"o":"m 83 972 l 700 972 l 700 851 l 194 851 l 194 608 l 589 608 l 589 486 l 194 486 l 194 122 l 700 122 l 700 0 l 83 0 l 83 972 m 218 1033 l 332 1224 l 406 1224 l 522 1033 l 440 1033 l 369 1160 l 367 1160 l 297 1033 l 218 1033 z "},"ë":{"ha":742,"x_min":83,"x_max":700,"o":"m 700 972 l 700 851 l 194 851 l 194 608 l 589 608 l 589 486 l 194 486 l 194 122 l 700 122 l 700 0 l 83 0 l 83 972 l 700 972 m 449 1036 q 404 1056 421 1036 q 388 1103 388 1076 q 404 1150 388 1129 q 449 1171 421 1171 q 492 1149 476 1171 q 508 1103 508 1128 q 492 1057 508 1078 q 449 1036 475 1036 m 294 1036 q 249 1056 267 1036 q 232 1103 232 1076 q 249 1150 232 1129 q 294 1171 267 1171 q 338 1149 322 1171 q 353 1103 353 1128 q 337 1057 353 1078 q 294 1036 321 1036 z "},"í":{"ha":278,"x_min":28,"x_max":251,"o":"m 194 0 l 83 0 l 83 972 l 194 972 l 194 0 m 135 1224 l 251 1224 l 104 1033 l 28 1033 l 135 1224 z "},"ì":{"ha":278,"x_min":28,"x_max":251,"o":"m 194 0 l 83 0 l 83 972 l 194 972 l 194 0 m 146 1224 l 251 1033 l 175 1033 l 28 1224 l 146 1224 z "},"î":{"ha":278,"x_min":-12,"x_max":292,"o":"m 194 0 l 83 0 l 83 972 l 194 972 l 194 0 m -12 1033 l 101 1224 l 175 1224 l 292 1033 l 210 1033 l 139 1160 l 136 1160 l 67 1033 l -12 1033 z "},"ï":{"ha":278,"x_min":1,"x_max":278,"o":"m 83 0 l 83 972 l 194 972 l 194 0 l 83 0 m 218 1036 q 174 1056 190 1036 q 157 1103 157 1076 q 174 1150 157 1129 q 218 1171 190 1171 q 262 1149 246 1171 q 278 1103 278 1128 q 261 1057 278 1078 q 218 1036 244 1036 m 64 1036 q 19 1056 36 1036 q 1 1103 1 1076 q 19 1150 1 1129 q 64 1171 36 1171 q 107 1149 92 1171 q 122 1103 122 1128 q 106 1057 122 1078 q 64 1036 90 1036 z "},"ñ":{"ha":832,"x_min":83,"x_max":749,"o":"m 83 972 l 206 972 l 639 194 l 639 851 l 383 851 l 383 972 l 749 972 l 749 0 l 626 0 l 194 788 l 194 0 l 83 0 l 83 972 m 265 1033 q 268 1078 265 1054 q 280 1122 271 1101 q 305 1157 289 1143 q 347 1171 321 1171 q 383 1163 365 1171 q 417 1145 401 1154 q 447 1128 432 1136 q 474 1119 461 1119 q 502 1139 497 1119 q 508 1176 507 1158 l 565 1176 q 563 1131 565 1154 q 551 1087 560 1107 q 525 1054 542 1067 q 481 1042 508 1042 q 444 1050 461 1042 q 411 1067 426 1058 q 382 1085 396 1076 q 356 1093 368 1093 q 340 1086 346 1093 q 330 1070 333 1079 q 325 1051 326 1061 q 324 1033 324 1040 l 265 1033 z "},"ó":{"ha":1039,"x_min":28,"x_max":1011,"o":"m 28 486 q 66 678 28 588 q 171 838 104 769 q 327 946 238 906 q 519 986 417 986 q 712 946 622 986 q 868 838 801 906 q 973 678 935 769 q 1011 486 1011 588 q 973 294 1011 385 q 868 135 935 203 q 712 26 801 67 q 519 -14 622 -14 q 327 26 417 -14 q 171 135 238 67 q 66 294 104 203 q 28 486 28 385 m 147 486 q 176 341 147 410 q 256 221 206 272 q 374 139 307 169 q 519 108 442 108 q 665 138 597 108 q 783 220 733 168 q 863 340 833 272 q 892 486 892 408 q 863 633 892 564 q 785 753 835 701 q 667 834 735 804 q 519 864 599 864 q 374 834 442 864 q 256 752 306 804 q 176 631 206 700 q 147 486 147 563 m 525 429 q 485 446 501 429 q 468 486 468 463 q 485 527 468 510 q 525 544 501 544 q 565 527 549 544 q 582 486 582 510 q 565 446 582 463 q 525 429 549 429 m 631 1224 l 483 1033 l 407 1033 l 514 1224 l 631 1224 z "},"ò":{"ha":1039,"x_min":28,"x_max":1011,"o":"m 28 486 q 66 678 28 588 q 171 838 104 769 q 327 946 238 906 q 519 986 417 986 q 712 946 622 986 q 868 838 801 906 q 973 678 935 769 q 1011 486 1011 588 q 973 294 1011 385 q 868 135 935 203 q 712 26 801 67 q 519 -14 622 -14 q 327 26 417 -14 q 171 135 238 67 q 66 294 104 203 q 28 486 28 385 m 147 486 q 176 341 147 410 q 256 221 206 272 q 374 139 307 169 q 519 108 442 108 q 665 138 597 108 q 783 220 733 168 q 863 340 833 272 q 892 486 892 408 q 863 633 892 564 q 785 753 835 701 q 667 834 735 804 q 519 864 599 864 q 374 834 442 864 q 256 752 306 804 q 176 631 206 700 q 147 486 147 563 m 525 429 q 485 446 501 429 q 468 486 468 463 q 485 527 468 510 q 525 544 501 544 q 565 527 549 544 q 582 486 582 510 q 565 446 582 463 q 525 429 549 429 m 631 1033 l 554 1033 l 407 1224 l 525 1224 l 631 1033 z "},"ô":{"ha":1039,"x_min":28,"x_max":1011,"o":"m 28 486 q 66 678 28 588 q 171 838 104 769 q 327 946 238 906 q 519 986 417 986 q 712 946 622 986 q 868 838 801 906 q 973 678 935 769 q 1011 486 1011 588 q 973 294 1011 385 q 868 135 935 203 q 712 26 801 67 q 519 -14 622 -14 q 327 26 417 -14 q 171 135 238 67 q 66 294 104 203 q 28 486 28 385 m 147 486 q 176 341 147 410 q 256 221 206 272 q 374 139 307 169 q 519 108 442 108 q 665 138 597 108 q 783 220 733 168 q 863 340 833 272 q 892 486 892 408 q 863 633 892 564 q 785 753 835 701 q 667 834 735 804 q 519 864 599 864 q 374 834 442 864 q 256 752 306 804 q 176 631 206 700 q 147 486 147 563 m 525 429 q 485 446 501 429 q 468 486 468 463 q 485 527 468 510 q 525 544 501 544 q 565 527 549 544 q 582 486 582 510 q 565 446 582 463 q 525 429 549 429 m 481 1224 l 554 1224 l 671 1033 l 589 1033 l 518 1160 l 515 1160 l 446 1033 l 367 1033 l 481 1224 z "},"ö":{"ha":1039,"x_min":28,"x_max":1011,"o":"m 28 486 q 66 678 28 588 q 171 838 104 769 q 327 946 238 906 q 519 986 417 986 q 712 946 622 986 q 868 838 801 906 q 973 678 935 769 q 1011 486 1011 588 q 973 294 1011 385 q 868 135 935 203 q 712 26 801 67 q 519 -14 622 -14 q 327 26 417 -14 q 171 135 238 67 q 66 294 104 203 q 28 486 28 385 m 147 486 q 176 341 147 410 q 256 221 206 272 q 374 139 307 169 q 519 108 442 108 q 665 138 597 108 q 783 220 733 168 q 863 340 833 272 q 892 486 892 408 q 863 633 892 564 q 785 753 835 701 q 667 834 735 804 q 519 864 599 864 q 374 834 442 864 q 256 752 306 804 q 176 631 206 700 q 147 486 147 563 m 525 429 q 485 446 501 429 q 468 486 468 463 q 485 527 468 510 q 525 544 501 544 q 565 527 549 544 q 582 486 582 510 q 565 446 582 463 q 525 429 549 429 m 597 1036 q 553 1056 569 1036 q 536 1103 536 1076 q 553 1150 536 1129 q 597 1171 569 1171 q 641 1149 625 1171 q 657 1103 657 1128 q 640 1057 657 1078 q 597 1036 624 1036 m 443 1036 q 398 1056 415 1036 q 381 1103 381 1076 q 398 1150 381 1129 q 443 1171 415 1171 q 486 1149 471 1171 q 501 1103 501 1128 q 485 1057 501 1078 q 443 1036 469 1036 z "},"õ":{"ha":1039,"x_min":28,"x_max":1011,"o":"m 28 486 q 66 678 28 588 q 171 838 104 769 q 327 946 238 906 q 519 986 417 986 q 712 946 622 986 q 868 838 801 906 q 973 678 935 769 q 1011 486 1011 588 q 973 294 1011 385 q 868 135 935 203 q 712 26 801 67 q 519 -14 622 -14 q 327 26 417 -14 q 171 135 238 67 q 66 294 104 203 q 28 486 28 385 m 147 486 q 176 341 147 410 q 256 221 206 272 q 374 139 307 169 q 519 108 442 108 q 665 138 597 108 q 783 220 733 168 q 863 340 833 272 q 892 486 892 408 q 863 633 892 564 q 785 753 835 701 q 667 834 735 804 q 519 864 599 864 q 374 834 442 864 q 256 752 306 804 q 176 631 206 700 q 147 486 147 563 m 525 429 q 485 446 501 429 q 468 486 468 463 q 485 527 468 510 q 525 544 501 544 q 565 527 549 544 q 582 486 582 510 q 565 446 582 463 q 525 429 549 429 m 369 1033 q 372 1078 369 1054 q 384 1122 375 1101 q 409 1157 393 1143 q 451 1171 425 1171 q 488 1163 469 1171 q 521 1145 506 1154 q 551 1128 536 1136 q 578 1119 565 1119 q 606 1139 601 1119 q 613 1176 611 1158 l 669 1176 q 667 1131 669 1154 q 655 1087 664 1107 q 629 1054 646 1067 q 585 1042 613 1042 q 548 1050 565 1042 q 515 1067 531 1058 q 486 1085 500 1076 q 460 1093 472 1093 q 444 1086 450 1093 q 434 1070 438 1079 q 429 1051 431 1061 q 428 1033 428 1040 l 369 1033 z "},"ú":{"ha":832,"x_min":83,"x_max":749,"o":"m 194 972 l 194 365 q 210 274 194 318 q 256 197 226 231 q 326 142 285 163 q 417 122 367 122 q 506 143 465 122 q 576 198 547 164 q 622 276 606 232 q 639 365 639 319 l 639 972 l 749 972 l 749 365 q 724 230 749 296 q 656 113 700 164 q 551 31 613 61 q 417 0 490 0 q 282 31 343 0 q 176 113 221 61 q 108 229 132 164 q 83 365 83 294 l 83 972 l 194 972 m 528 1224 l 381 1033 l 304 1033 l 411 1224 l 528 1224 z "},"ù":{"ha":832,"x_min":83,"x_max":749,"o":"m 194 972 l 194 365 q 210 274 194 318 q 256 197 226 231 q 326 142 285 163 q 417 122 367 122 q 506 143 465 122 q 576 198 547 164 q 622 276 606 232 q 639 365 639 319 l 639 972 l 749 972 l 749 365 q 724 230 749 296 q 656 113 700 164 q 551 31 613 61 q 417 0 490 0 q 282 31 343 0 q 176 113 221 61 q 108 229 132 164 q 83 365 83 294 l 83 972 l 194 972 m 528 1033 l 451 1033 l 304 1224 l 422 1224 l 528 1033 z "},"û":{"ha":832,"x_min":83,"x_max":749,"o":"m 194 972 l 194 365 q 210 274 194 318 q 256 197 226 231 q 326 142 285 163 q 417 122 367 122 q 506 143 465 122 q 576 198 547 164 q 622 276 606 232 q 639 365 639 319 l 639 972 l 749 972 l 749 365 q 724 230 749 296 q 656 113 700 164 q 551 31 613 61 q 417 0 490 0 q 282 31 343 0 q 176 113 221 61 q 108 229 132 164 q 83 365 83 294 l 83 972 l 194 972 m 378 1224 l 451 1224 l 568 1033 l 486 1033 l 415 1160 l 413 1160 l 343 1033 l 264 1033 l 378 1224 z "},"ü":{"ha":832,"x_min":83,"x_max":749,"o":"m 194 972 l 194 365 q 210 274 194 318 q 256 197 226 231 q 326 142 285 163 q 417 122 367 122 q 506 143 465 122 q 576 198 547 164 q 622 276 606 232 q 639 365 639 319 l 639 972 l 749 972 l 749 365 q 724 230 749 296 q 656 113 700 164 q 551 31 613 61 q 417 0 490 0 q 282 31 343 0 q 176 113 221 61 q 108 229 132 164 q 83 365 83 294 l 83 972 l 194 972 m 494 1036 q 450 1056 467 1036 q 433 1103 433 1076 q 450 1150 433 1129 q 494 1171 467 1171 q 538 1149 522 1171 q 554 1103 554 1128 q 538 1057 554 1078 q 494 1036 521 1036 m 340 1036 q 295 1056 313 1036 q 278 1103 278 1076 q 295 1150 278 1129 q 340 1171 313 1171 q 383 1149 368 1171 q 399 1103 399 1128 q 383 1057 399 1078 q 340 1036 367 1036 z "},"†":{"ha":444,"x_min":21,"x_max":425,"o":"m 263 -114 l 182 -114 l 182 1042 l 263 1042 l 263 -114 m 425 418 l 21 418 l 21 528 l 425 528 l 425 418 z "},"Æ":{"ha":1429,"x_min":14,"x_max":1407,"o":"m 14 0 l 403 972 l 513 972 l 901 0 l 781 0 q 618 403 696 201 q 457 808 540 606 q 323 464 390 635 q 185 122 256 293 l 607 122 q 631 61 619 92 q 656 0 643 31 l 14 0 m 1407 972 l 1407 851 l 901 851 l 901 608 l 1296 608 l 1296 486 l 901 486 l 901 122 l 1407 122 l 1407 0 l 790 0 l 790 972 l 1407 972 z "},"ÿ":{"ha":842,"x_min":14,"x_max":828,"o":"m 150 972 l 421 550 l 614 851 l 357 851 l 279 972 l 828 972 q 650 700 736 838 q 476 425 564 563 l 476 0 l 365 0 l 365 425 l 14 972 l 150 972 m 499 1036 q 454 1056 471 1036 q 438 1103 438 1076 q 454 1150 438 1129 q 499 1171 471 1171 q 542 1149 526 1171 q 558 1103 558 1128 q 542 1057 558 1078 q 499 1036 525 1036 m 344 1036 q 299 1056 317 1036 q 282 1103 282 1076 q 299 1150 282 1129 q 344 1171 317 1171 q 388 1149 372 1171 q 403 1103 403 1128 q 387 1057 403 1078 q 344 1036 371 1036 z "},"Ÿ":{"ha":842,"x_min":14,"x_max":828,"o":"m 150 972 l 421 550 l 614 851 l 357 851 l 279 972 l 828 972 q 650 700 736 838 q 476 425 564 563 l 476 0 l 365 0 l 365 425 l 14 972 l 150 972 m 499 1036 q 454 1056 471 1036 q 438 1103 438 1076 q 454 1150 438 1129 q 499 1171 471 1171 q 542 1149 526 1171 q 558 1103 558 1128 q 542 1057 558 1078 q 499 1036 525 1036 m 344 1036 q 299 1056 317 1036 q 282 1103 282 1076 q 299 1150 282 1129 q 344 1171 317 1171 q 388 1149 372 1171 q 403 1103 403 1128 q 387 1057 403 1078 q 344 1036 371 1036 z "},"Ø":{"ha":1039,"x_min":28,"x_max":1011,"o":"m 28 486 q 66 678 28 588 q 171 838 104 769 q 327 946 238 906 q 519 986 417 986 q 712 946 622 986 q 868 838 801 906 q 973 678 935 769 q 1011 486 1011 588 q 973 294 1011 385 q 868 135 935 203 q 712 26 801 67 q 519 -14 622 -14 q 327 26 417 -14 q 171 135 238 67 q 66 294 104 203 q 28 486 28 385 m 147 486 q 176 341 147 410 q 256 221 206 272 q 374 139 307 169 q 519 108 442 108 q 665 138 597 108 q 783 220 733 168 q 863 340 833 272 q 892 486 892 408 q 863 633 892 564 q 785 753 835 701 q 667 834 735 804 q 519 864 599 864 q 374 834 442 864 q 256 752 306 804 q 176 631 206 700 q 147 486 147 563 m 525 429 q 565 446 549 429 q 582 486 582 463 q 565 527 582 510 q 525 544 549 544 q 485 527 501 544 q 468 486 468 510 q 485 446 468 463 q 525 429 501 429 m 808 1113 l 378 -67 l 269 -67 l 700 1113 l 808 1113 z "},"æ":{"ha":1431,"x_min":14,"x_max":1407,"o":"m 14 0 l 403 972 l 513 972 l 901 0 l 781 0 q 618 403 696 201 q 457 808 540 606 q 323 464 390 635 q 185 122 256 293 l 607 122 q 631 61 619 92 q 656 0 643 31 l 14 0 m 1407 972 l 1407 851 l 901 851 l 901 608 l 1296 608 l 1296 486 l 901 486 l 901 122 l 1407 122 l 1407 0 l 790 0 l 790 972 l 1407 972 z "},"ø":{"ha":1039,"x_min":28,"x_max":1011,"o":"m 28 486 q 66 678 28 588 q 171 838 104 769 q 327 946 238 906 q 519 986 417 986 q 712 946 622 986 q 868 838 801 906 q 973 678 935 769 q 1011 486 1011 588 q 973 294 1011 385 q 868 135 935 203 q 712 26 801 67 q 519 -14 622 -14 q 327 26 417 -14 q 171 135 238 67 q 66 294 104 203 q 28 486 28 385 m 147 486 q 176 341 147 410 q 256 221 206 272 q 374 139 307 169 q 519 108 442 108 q 665 138 597 108 q 783 220 733 168 q 863 340 833 272 q 892 486 892 408 q 863 633 892 564 q 785 753 835 701 q 667 834 735 804 q 519 864 599 864 q 374 834 442 864 q 256 752 306 804 q 176 631 206 700 q 147 486 147 563 m 525 429 q 565 446 549 429 q 582 486 582 463 q 565 527 582 510 q 525 544 549 544 q 485 527 501 544 q 468 486 468 510 q 485 446 468 463 q 525 429 501 429 m 806 1108 l 375 -71 l 267 -71 l 697 1108 l 806 1108 z "},"À":{"ha":915,"x_min":14,"x_max":901,"o":"m 14 0 l 403 972 l 513 972 l 901 0 l 781 0 q 618 403 696 201 q 457 808 540 606 q 323 464 390 635 q 185 122 256 293 l 607 122 q 631 61 619 92 q 656 0 643 31 l 14 0 m 569 1033 l 493 1033 l 346 1224 l 464 1224 l 569 1033 z "},"Ã":{"ha":915,"x_min":14,"x_max":901,"o":"m 14 0 l 403 972 l 513 972 l 901 0 l 781 0 q 618 403 696 201 q 457 808 540 606 q 323 464 390 635 q 185 122 256 293 l 607 122 q 631 61 619 92 q 656 0 643 31 l 14 0 m 307 1033 q 310 1078 307 1054 q 322 1122 313 1101 q 347 1157 331 1143 q 389 1171 363 1171 q 425 1163 407 1171 q 458 1145 443 1154 q 488 1128 474 1136 q 515 1119 503 1119 q 544 1139 539 1119 q 550 1176 549 1158 l 607 1176 q 604 1131 607 1154 q 592 1087 601 1107 q 567 1054 583 1067 q 522 1042 550 1042 q 485 1050 503 1042 q 453 1067 468 1058 q 424 1085 438 1076 q 397 1093 410 1093 q 381 1086 388 1093 q 372 1070 375 1079 q 367 1051 368 1061 q 365 1033 365 1040 l 307 1033 z "},"Õ":{"ha":1039,"x_min":28,"x_max":1011,"o":"m 28 486 q 66 678 28 588 q 171 838 104 769 q 327 946 238 906 q 519 986 417 986 q 712 946 622 986 q 868 838 801 906 q 973 678 935 769 q 1011 486 1011 588 q 973 294 1011 385 q 868 135 935 203 q 712 26 801 67 q 519 -14 622 -14 q 327 26 417 -14 q 171 135 238 67 q 66 294 104 203 q 28 486 28 385 m 147 486 q 176 341 147 410 q 256 221 206 272 q 374 139 307 169 q 519 108 442 108 q 665 138 597 108 q 783 220 733 168 q 863 340 833 272 q 892 486 892 408 q 863 633 892 564 q 785 753 835 701 q 667 834 735 804 q 519 864 599 864 q 374 834 442 864 q 256 752 306 804 q 176 631 206 700 q 147 486 147 563 m 525 429 q 485 446 501 429 q 468 486 468 463 q 485 527 468 510 q 525 544 501 544 q 565 527 549 544 q 582 486 582 510 q 565 446 582 463 q 525 429 549 429 m 369 1033 q 372 1078 369 1054 q 384 1122 375 1101 q 409 1157 393 1143 q 451 1171 425 1171 q 488 1163 469 1171 q 521 1145 506 1154 q 551 1128 536 1136 q 578 1119 565 1119 q 606 1139 601 1119 q 613 1176 611 1158 l 669 1176 q 667 1131 669 1154 q 655 1087 664 1107 q 629 1054 646 1067 q 585 1042 613 1042 q 548 1050 565 1042 q 515 1067 531 1058 q 486 1085 500 1076 q 460 1093 472 1093 q 444 1086 450 1093 q 434 1070 438 1079 q 429 1051 431 1061 q 428 1033 428 1040 l 369 1033 z "},"Œ":{"ha":1539,"x_min":28,"x_max":1515,"o":"m 28 486 q 66 678 28 588 q 171 838 104 769 q 327 946 238 906 q 519 986 417 986 q 712 946 622 986 q 868 838 801 906 q 973 678 935 769 q 1011 486 1011 588 q 973 294 1011 385 q 868 135 935 203 q 712 26 801 67 q 519 -14 622 -14 q 327 26 417 -14 q 171 135 238 67 q 66 294 104 203 q 28 486 28 385 m 147 486 q 176 341 147 410 q 256 221 206 272 q 374 139 307 169 q 519 108 442 108 q 665 138 597 108 q 783 220 733 168 q 863 340 833 272 q 892 486 892 408 q 863 633 892 564 q 785 753 835 701 q 667 834 735 804 q 519 864 599 864 q 374 834 442 864 q 256 752 306 804 q 176 631 206 700 q 147 486 147 563 m 525 429 q 485 446 501 429 q 468 486 468 463 q 485 527 468 510 q 525 544 501 544 q 565 527 549 544 q 582 486 582 510 q 565 446 582 463 q 525 429 549 429 m 1515 972 l 1515 851 l 1010 851 l 1010 608 l 1404 608 l 1404 486 l 1010 486 l 1010 122 l 1515 122 l 1515 0 l 899 0 l 899 972 l 1515 972 z "},"œ":{"ha":1542,"x_min":28,"x_max":1517,"o":"m 28 486 q 66 678 28 588 q 171 838 104 769 q 327 946 238 906 q 519 986 417 986 q 712 946 622 986 q 868 838 801 906 q 973 678 935 769 q 1011 486 1011 588 q 973 294 1011 385 q 868 135 935 203 q 712 26 801 67 q 519 -14 622 -14 q 327 26 417 -14 q 171 135 238 67 q 66 294 104 203 q 28 486 28 385 m 147 486 q 176 341 147 410 q 256 221 206 272 q 374 139 307 169 q 519 108 442 108 q 665 138 597 108 q 783 220 733 168 q 863 340 833 272 q 892 486 892 408 q 863 633 892 564 q 785 753 835 701 q 667 834 735 804 q 519 864 599 864 q 374 834 442 864 q 256 752 306 804 q 176 631 206 700 q 147 486 147 563 m 525 429 q 485 446 501 429 q 468 486 468 463 q 485 527 468 510 q 525 544 501 544 q 565 527 549 544 q 582 486 582 510 q 565 446 582 463 q 525 429 549 429 m 1517 972 l 1517 851 l 1011 851 l 1011 608 l 1406 608 l 1406 486 l 1011 486 l 1011 122 l 1517 122 l 1517 0 l 900 0 l 900 972 l 1517 972 z "},"€":{"ha":758,"x_min":83,"x_max":675,"o":"m 83 649 q 105 769 83 711 q 166 873 126 828 q 260 945 206 918 q 379 972 314 972 q 499 945 444 972 q 592 873 553 918 q 653 769 632 828 q 675 649 675 711 l 675 324 q 653 203 675 261 q 592 99 632 144 q 499 27 553 54 q 379 0 444 0 q 260 27 314 0 q 166 99 206 54 q 105 203 126 144 q 83 324 83 261 l 83 649 m 194 324 l 194 649 q 208 723 194 686 q 247 788 222 760 q 305 834 271 817 q 379 851 339 851 q 453 834 419 851 q 512 788 488 817 q 550 723 536 760 q 564 649 564 686 l 564 324 q 551 249 564 285 q 513 184 538 213 q 455 139 489 156 q 379 122 421 122 q 303 139 338 122 q 245 184 269 156 q 208 249 221 213 q 194 324 194 285 m 176 611 l 176 500 l 581 500 l 581 611 l 176 611 m 176 353 l 176 243 l 581 243 l 581 353 l 176 353 z "},"ﬁ":{"ha":983,"x_min":83,"x_max":900,"o":"m 194 0 l 83 0 l 83 972 l 700 972 l 700 851 l 194 851 l 194 608 l 589 608 l 589 486 l 194 486 l 194 0 m 900 0 l 789 0 l 789 972 l 900 972 l 900 0 z "},"ﬂ":{"ha":1426,"x_min":83,"x_max":1413,"o":"m 194 0 l 83 0 l 83 972 l 700 972 l 700 851 l 194 851 l 194 608 l 589 608 l 589 486 l 194 486 l 194 0 m 907 122 l 1413 122 l 1413 0 l 796 0 l 796 972 l 907 972 l 907 122 z "},"Â":{"ha":915,"x_min":14,"x_max":901,"o":"m 14 0 l 403 972 l 513 972 l 901 0 l 781 0 q 618 403 696 201 q 457 808 540 606 q 323 464 390 635 q 185 122 256 293 l 607 122 q 631 61 619 92 q 656 0 643 31 l 14 0 m 419 1224 l 493 1224 l 610 1033 l 528 1033 l 457 1160 l 454 1160 l 385 1033 l 306 1033 l 419 1224 z "},"Ê":{"ha":742,"x_min":83,"x_max":700,"o":"m 83 972 l 700 972 l 700 851 l 194 851 l 194 608 l 589 608 l 589 486 l 194 486 l 194 122 l 700 122 l 700 0 l 83 0 l 83 972 m 218 1033 l 332 1224 l 406 1224 l 522 1033 l 440 1033 l 369 1160 l 367 1160 l 297 1033 l 218 1033 z "},"Á":{"ha":915,"x_min":14,"x_max":901,"o":"m 14 0 l 403 972 l 513 972 l 901 0 l 781 0 q 618 403 696 201 q 457 808 540 606 q 323 464 390 635 q 185 122 256 293 l 607 122 q 631 61 619 92 q 656 0 643 31 l 14 0 m 569 1224 l 422 1033 l 346 1033 l 453 1224 l 569 1224 z "},"Ë":{"ha":742,"x_min":83,"x_max":700,"o":"m 700 972 l 700 851 l 194 851 l 194 608 l 589 608 l 589 486 l 194 486 l 194 122 l 700 122 l 700 0 l 83 0 l 83 972 l 700 972 m 449 1036 q 404 1056 421 1036 q 388 1103 388 1076 q 404 1150 388 1129 q 449 1171 421 1171 q 492 1149 476 1171 q 508 1103 508 1128 q 492 1057 508 1078 q 449 1036 475 1036 m 294 1036 q 249 1056 267 1036 q 232 1103 232 1076 q 249 1150 232 1129 q 294 1171 267 1171 q 338 1149 322 1171 q 353 1103 353 1128 q 337 1057 353 1078 q 294 1036 321 1036 z "},"È":{"ha":742,"x_min":83,"x_max":700,"o":"m 83 972 l 700 972 l 700 851 l 194 851 l 194 608 l 589 608 l 589 486 l 194 486 l 194 122 l 700 122 l 700 0 l 83 0 l 83 972 m 376 1224 l 482 1033 l 406 1033 l 258 1224 l 376 1224 z "},"Í":{"ha":278,"x_min":28,"x_max":251,"o":"m 194 0 l 83 0 l 83 972 l 194 972 l 194 0 m 135 1224 l 251 1224 l 104 1033 l 28 1033 l 135 1224 z "},"Î":{"ha":278,"x_min":-12,"x_max":292,"o":"m 194 0 l 83 0 l 83 972 l 194 972 l 194 0 m -12 1033 l 101 1224 l 175 1224 l 292 1033 l 210 1033 l 139 1160 l 136 1160 l 67 1033 l -12 1033 z "},"Ï":{"ha":278,"x_min":1,"x_max":278,"o":"m 83 0 l 83 972 l 194 972 l 194 0 l 83 0 m 218 1036 q 174 1056 190 1036 q 157 1103 157 1076 q 174 1150 157 1129 q 218 1171 190 1171 q 262 1149 246 1171 q 278 1103 278 1128 q 261 1057 278 1078 q 218 1036 244 1036 m 64 1036 q 19 1056 36 1036 q 1 1103 1 1076 q 19 1150 1 1129 q 64 1171 36 1171 q 107 1149 92 1171 q 122 1103 122 1128 q 106 1057 122 1078 q 64 1036 90 1036 z "},"Ì":{"ha":278,"x_min":28,"x_max":251,"o":"m 194 0 l 83 0 l 83 972 l 194 972 l 194 0 m 146 1224 l 251 1033 l 175 1033 l 28 1224 l 146 1224 z "},"Ó":{"ha":1039,"x_min":28,"x_max":1011,"o":"m 28 486 q 66 678 28 588 q 171 838 104 769 q 327 946 238 906 q 519 986 417 986 q 712 946 622 986 q 868 838 801 906 q 973 678 935 769 q 1011 486 1011 588 q 973 294 1011 385 q 868 135 935 203 q 712 26 801 67 q 519 -14 622 -14 q 327 26 417 -14 q 171 135 238 67 q 66 294 104 203 q 28 486 28 385 m 147 486 q 176 341 147 410 q 256 221 206 272 q 374 139 307 169 q 519 108 442 108 q 665 138 597 108 q 783 220 733 168 q 863 340 833 272 q 892 486 892 408 q 863 633 892 564 q 785 753 835 701 q 667 834 735 804 q 519 864 599 864 q 374 834 442 864 q 256 752 306 804 q 176 631 206 700 q 147 486 147 563 m 525 429 q 485 446 501 429 q 468 486 468 463 q 485 527 468 510 q 525 544 501 544 q 565 527 549 544 q 582 486 582 510 q 565 446 582 463 q 525 429 549 429 m 631 1224 l 483 1033 l 407 1033 l 514 1224 l 631 1224 z "},"Ô":{"ha":1039,"x_min":28,"x_max":1011,"o":"m 28 486 q 66 678 28 588 q 171 838 104 769 q 327 946 238 906 q 519 986 417 986 q 712 946 622 986 q 868 838 801 906 q 973 678 935 769 q 1011 486 1011 588 q 973 294 1011 385 q 868 135 935 203 q 712 26 801 67 q 519 -14 622 -14 q 327 26 417 -14 q 171 135 238 67 q 66 294 104 203 q 28 486 28 385 m 147 486 q 176 341 147 410 q 256 221 206 272 q 374 139 307 169 q 519 108 442 108 q 665 138 597 108 q 783 220 733 168 q 863 340 833 272 q 892 486 892 408 q 863 633 892 564 q 785 753 835 701 q 667 834 735 804 q 519 864 599 864 q 374 834 442 864 q 256 752 306 804 q 176 631 206 700 q 147 486 147 563 m 525 429 q 485 446 501 429 q 468 486 468 463 q 485 527 468 510 q 525 544 501 544 q 565 527 549 544 q 582 486 582 510 q 565 446 582 463 q 525 429 549 429 m 481 1224 l 554 1224 l 671 1033 l 589 1033 l 518 1160 l 515 1160 l 446 1033 l 367 1033 l 481 1224 z "},"Ú":{"ha":832,"x_min":83,"x_max":749,"o":"m 194 972 l 194 365 q 210 274 194 318 q 256 197 226 231 q 326 142 285 163 q 417 122 367 122 q 506 143 465 122 q 576 198 547 164 q 622 276 606 232 q 639 365 639 319 l 639 972 l 749 972 l 749 365 q 724 230 749 296 q 656 113 700 164 q 551 31 613 61 q 417 0 490 0 q 282 31 343 0 q 176 113 221 61 q 108 229 132 164 q 83 365 83 294 l 83 972 l 194 972 m 528 1224 l 381 1033 l 304 1033 l 411 1224 l 528 1224 z "},"Ò":{"ha":1039,"x_min":28,"x_max":1011,"o":"m 28 486 q 66 678 28 588 q 171 838 104 769 q 327 946 238 906 q 519 986 417 986 q 712 946 622 986 q 868 838 801 906 q 973 678 935 769 q 1011 486 1011 588 q 973 294 1011 385 q 868 135 935 203 q 712 26 801 67 q 519 -14 622 -14 q 327 26 417 -14 q 171 135 238 67 q 66 294 104 203 q 28 486 28 385 m 147 486 q 176 341 147 410 q 256 221 206 272 q 374 139 307 169 q 519 108 442 108 q 665 138 597 108 q 783 220 733 168 q 863 340 833 272 q 892 486 892 408 q 863 633 892 564 q 785 753 835 701 q 667 834 735 804 q 519 864 599 864 q 374 834 442 864 q 256 752 306 804 q 176 631 206 700 q 147 486 147 563 m 525 429 q 485 446 501 429 q 468 486 468 463 q 485 527 468 510 q 525 544 501 544 q 565 527 549 544 q 582 486 582 510 q 565 446 582 463 q 525 429 549 429 m 631 1033 l 554 1033 l 407 1224 l 525 1224 l 631 1033 z "},"Û":{"ha":832,"x_min":83,"x_max":749,"o":"m 194 972 l 194 365 q 210 274 194 318 q 256 197 226 231 q 326 142 285 163 q 417 122 367 122 q 506 143 465 122 q 576 198 547 164 q 622 276 606 232 q 639 365 639 319 l 639 972 l 749 972 l 749 365 q 724 230 749 296 q 656 113 700 164 q 551 31 613 61 q 417 0 490 0 q 282 31 343 0 q 176 113 221 61 q 108 229 132 164 q 83 365 83 294 l 83 972 l 194 972 m 378 1224 l 451 1224 l 568 1033 l 486 1033 l 415 1160 l 413 1160 l 343 1033 l 264 1033 l 378 1224 z "},"Ù":{"ha":832,"x_min":83,"x_max":749,"o":"m 194 972 l 194 365 q 210 274 194 318 q 256 197 226 231 q 326 142 285 163 q 417 122 367 122 q 506 143 465 122 q 576 198 547 164 q 622 276 606 232 q 639 365 639 319 l 639 972 l 749 972 l 749 365 q 724 230 749 296 q 656 113 700 164 q 551 31 613 61 q 417 0 490 0 q 282 31 343 0 q 176 113 221 61 q 108 229 132 164 q 83 365 83 294 l 83 972 l 194 972 m 528 1033 l 451 1033 l 304 1224 l 422 1224 l 528 1033 z "},"‡":{"ha":444,"x_min":21,"x_max":425,"o":"m 263 -114 l 182 -114 l 182 1042 l 263 1042 l 263 -114 m 21 611 l 425 611 l 425 500 l 21 500 l 21 611 m 21 353 l 425 353 l 425 243 l 21 243 l 21 353 z "}}}
